ISO-10303-21;
HEADER;
/* Generated by software containing ST-Developer
 * from STEP Tools, Inc. (www.steptools.com) 
 */

FILE_DESCRIPTION(
/* description */ (''),
/* implementation_level */ '2;1');

FILE_NAME(
/* name */ 'middle lid.step',
/* time_stamp */ '2026-10-09T10:46:18+05:30',
/* author */ (''),
/* organization */ (''),
/* preprocessor_version */ 'ST-DEVELOPER v20.2',
/* originating_system */ 'Autodesk Translation Framework v15.15.0.0',
/* authorisation */ '');

FILE_SCHEMA (('AUTOMOTIVE_DESIGN { 1 0 10303 214 3 1 1 }'));
ENDSEC;

DATA;
#10=MECHANICAL_DESIGN_GEOMETRIC_PRESENTATION_REPRESENTATION('',(#13),#1148);
#11=SHAPE_REPRESENTATION_RELATIONSHIP('SRR','None',#1155,#12);
#12=ADVANCED_BREP_SHAPE_REPRESENTATION('',(#14),#1147);
#13=STYLED_ITEM('',(#1164),#14);
#14=MANIFOLD_SOLID_BREP('Body1',#696);
#15=CYLINDRICAL_SURFACE('',#729,6.12392737016477);
#16=CYLINDRICAL_SURFACE('',#733,6.12392737016477);
#17=CYLINDRICAL_SURFACE('',#748,1.2);
#18=CYLINDRICAL_SURFACE('',#750,1.2);
#19=CYLINDRICAL_SURFACE('',#752,1.2);
#20=CYLINDRICAL_SURFACE('',#754,1.2);
#21=CYLINDRICAL_SURFACE('',#756,1.2);
#22=CYLINDRICAL_SURFACE('',#758,1.2);
#23=CYLINDRICAL_SURFACE('',#760,1.2);
#24=CYLINDRICAL_SURFACE('',#762,1.2);
#25=CYLINDRICAL_SURFACE('',#764,51.);
#26=FACE_BOUND('',#102,.T.);
#27=FACE_BOUND('',#127,.T.);
#28=FACE_BOUND('',#128,.T.);
#29=FACE_BOUND('',#129,.T.);
#30=FACE_BOUND('',#130,.T.);
#31=FACE_BOUND('',#131,.T.);
#32=FACE_BOUND('',#132,.T.);
#33=FACE_BOUND('',#133,.T.);
#34=FACE_BOUND('',#134,.T.);
#35=FACE_BOUND('',#135,.T.);
#36=FACE_BOUND('',#146,.T.);
#37=FACE_BOUND('',#147,.T.);
#38=FACE_BOUND('',#148,.T.);
#39=FACE_BOUND('',#149,.T.);
#40=FACE_BOUND('',#150,.T.);
#41=FACE_BOUND('',#151,.T.);
#42=FACE_BOUND('',#152,.T.);
#43=FACE_BOUND('',#153,.T.);
#44=CIRCLE('',#711,6.12392737016477);
#45=CIRCLE('',#712,6.12392737016477);
#46=CIRCLE('',#730,6.12392737016477);
#47=CIRCLE('',#734,6.12392737016477);
#48=CIRCLE('',#739,51.);
#49=CIRCLE('',#740,1.2);
#50=CIRCLE('',#741,1.2);
#51=CIRCLE('',#742,1.2);
#52=CIRCLE('',#743,1.2);
#53=CIRCLE('',#744,1.2);
#54=CIRCLE('',#745,1.2);
#55=CIRCLE('',#746,1.2);
#56=CIRCLE('',#747,1.2);
#57=CIRCLE('',#749,1.2);
#58=CIRCLE('',#751,1.2);
#59=CIRCLE('',#753,1.2);
#60=CIRCLE('',#755,1.2);
#61=CIRCLE('',#757,1.2);
#62=CIRCLE('',#759,1.2);
#63=CIRCLE('',#761,1.2);
#64=CIRCLE('',#763,1.2);
#65=CIRCLE('',#765,51.);
#66=FACE_OUTER_BOUND('',#101,.T.);
#67=FACE_OUTER_BOUND('',#103,.T.);
#68=FACE_OUTER_BOUND('',#104,.T.);
#69=FACE_OUTER_BOUND('',#105,.T.);
#70=FACE_OUTER_BOUND('',#106,.T.);
#71=FACE_OUTER_BOUND('',#107,.T.);
#72=FACE_OUTER_BOUND('',#108,.T.);
#73=FACE_OUTER_BOUND('',#109,.T.);
#74=FACE_OUTER_BOUND('',#110,.T.);
#75=FACE_OUTER_BOUND('',#111,.T.);
#76=FACE_OUTER_BOUND('',#112,.T.);
#77=FACE_OUTER_BOUND('',#113,.T.);
#78=FACE_OUTER_BOUND('',#114,.T.);
#79=FACE_OUTER_BOUND('',#115,.T.);
#80=FACE_OUTER_BOUND('',#116,.T.);
#81=FACE_OUTER_BOUND('',#117,.T.);
#82=FACE_OUTER_BOUND('',#118,.T.);
#83=FACE_OUTER_BOUND('',#119,.T.);
#84=FACE_OUTER_BOUND('',#120,.T.);
#85=FACE_OUTER_BOUND('',#121,.T.);
#86=FACE_OUTER_BOUND('',#122,.T.);
#87=FACE_OUTER_BOUND('',#123,.T.);
#88=FACE_OUTER_BOUND('',#124,.T.);
#89=FACE_OUTER_BOUND('',#125,.T.);
#90=FACE_OUTER_BOUND('',#126,.T.);
#91=FACE_OUTER_BOUND('',#136,.T.);
#92=FACE_OUTER_BOUND('',#137,.T.);
#93=FACE_OUTER_BOUND('',#138,.T.);
#94=FACE_OUTER_BOUND('',#139,.T.);
#95=FACE_OUTER_BOUND('',#140,.T.);
#96=FACE_OUTER_BOUND('',#141,.T.);
#97=FACE_OUTER_BOUND('',#142,.T.);
#98=FACE_OUTER_BOUND('',#143,.T.);
#99=FACE_OUTER_BOUND('',#144,.T.);
#100=FACE_OUTER_BOUND('',#145,.T.);
#101=EDGE_LOOP('',(#451,#452,#453,#454,#455,#456,#457,#458,#459,#460,#461,
#462,#463,#464,#465,#466));
#102=EDGE_LOOP('',(#467,#468,#469,#470,#471,#472));
#103=EDGE_LOOP('',(#473,#474,#475,#476));
#104=EDGE_LOOP('',(#477,#478,#479,#480));
#105=EDGE_LOOP('',(#481,#482,#483,#484));
#106=EDGE_LOOP('',(#485,#486,#487,#488));
#107=EDGE_LOOP('',(#489,#490,#491,#492));
#108=EDGE_LOOP('',(#493,#494,#495,#496));
#109=EDGE_LOOP('',(#497,#498,#499,#500));
#110=EDGE_LOOP('',(#501,#502,#503,#504));
#111=EDGE_LOOP('',(#505,#506,#507,#508));
#112=EDGE_LOOP('',(#509,#510,#511,#512));
#113=EDGE_LOOP('',(#513,#514,#515,#516));
#114=EDGE_LOOP('',(#517,#518,#519,#520));
#115=EDGE_LOOP('',(#521,#522,#523,#524));
#116=EDGE_LOOP('',(#525,#526,#527,#528));
#117=EDGE_LOOP('',(#529,#530,#531,#532));
#118=EDGE_LOOP('',(#533,#534,#535,#536));
#119=EDGE_LOOP('',(#537,#538,#539,#540));
#120=EDGE_LOOP('',(#541,#542,#543,#544));
#121=EDGE_LOOP('',(#545,#546,#547,#548));
#122=EDGE_LOOP('',(#549,#550,#551,#552));
#123=EDGE_LOOP('',(#553,#554,#555,#556));
#124=EDGE_LOOP('',(#557,#558,#559,#560));
#125=EDGE_LOOP('',(#561,#562,#563,#564,#565,#566));
#126=EDGE_LOOP('',(#567));
#127=EDGE_LOOP('',(#568));
#128=EDGE_LOOP('',(#569));
#129=EDGE_LOOP('',(#570));
#130=EDGE_LOOP('',(#571));
#131=EDGE_LOOP('',(#572));
#132=EDGE_LOOP('',(#573));
#133=EDGE_LOOP('',(#574));
#134=EDGE_LOOP('',(#575));
#135=EDGE_LOOP('',(#576,#577,#578,#579,#580,#581,#582,#583,#584,#585,#586,
#587,#588,#589,#590,#591));
#136=EDGE_LOOP('',(#592,#593,#594,#595));
#137=EDGE_LOOP('',(#596,#597,#598,#599));
#138=EDGE_LOOP('',(#600,#601,#602,#603));
#139=EDGE_LOOP('',(#604,#605,#606,#607));
#140=EDGE_LOOP('',(#608,#609,#610,#611));
#141=EDGE_LOOP('',(#612,#613,#614,#615));
#142=EDGE_LOOP('',(#616,#617,#618,#619));
#143=EDGE_LOOP('',(#620,#621,#622,#623));
#144=EDGE_LOOP('',(#624,#625,#626,#627));
#145=EDGE_LOOP('',(#628));
#146=EDGE_LOOP('',(#629));
#147=EDGE_LOOP('',(#630));
#148=EDGE_LOOP('',(#631));
#149=EDGE_LOOP('',(#632));
#150=EDGE_LOOP('',(#633));
#151=EDGE_LOOP('',(#634));
#152=EDGE_LOOP('',(#635));
#153=EDGE_LOOP('',(#636));
#154=LINE('',#958,#225);
#155=LINE('',#960,#226);
#156=LINE('',#962,#227);
#157=LINE('',#964,#228);
#158=LINE('',#966,#229);
#159=LINE('',#968,#230);
#160=LINE('',#970,#231);
#161=LINE('',#972,#232);
#162=LINE('',#974,#233);
#163=LINE('',#976,#234);
#164=LINE('',#978,#235);
#165=LINE('',#980,#236);
#166=LINE('',#982,#237);
#167=LINE('',#984,#238);
#168=LINE('',#986,#239);
#169=LINE('',#987,#240);
#170=LINE('',#992,#241);
#171=LINE('',#994,#242);
#172=LINE('',#998,#243);
#173=LINE('',#999,#244);
#174=LINE('',#1002,#245);
#175=LINE('',#1004,#246);
#176=LINE('',#1005,#247);
#177=LINE('',#1008,#248);
#178=LINE('',#1009,#249);
#179=LINE('',#1012,#250);
#180=LINE('',#1013,#251);
#181=LINE('',#1016,#252);
#182=LINE('',#1017,#253);
#183=LINE('',#1020,#254);
#184=LINE('',#1021,#255);
#185=LINE('',#1024,#256);
#186=LINE('',#1025,#257);
#187=LINE('',#1028,#258);
#188=LINE('',#1029,#259);
#189=LINE('',#1032,#260);
#190=LINE('',#1033,#261);
#191=LINE('',#1036,#262);
#192=LINE('',#1037,#263);
#193=LINE('',#1040,#264);
#194=LINE('',#1041,#265);
#195=LINE('',#1044,#266);
#196=LINE('',#1045,#267);
#197=LINE('',#1048,#268);
#198=LINE('',#1049,#269);
#199=LINE('',#1052,#270);
#200=LINE('',#1053,#271);
#201=LINE('',#1056,#272);
#202=LINE('',#1057,#273);
#203=LINE('',#1060,#274);
#204=LINE('',#1061,#275);
#205=LINE('',#1063,#276);
#206=LINE('',#1066,#277);
#207=LINE('',#1069,#278);
#208=LINE('',#1072,#279);
#209=LINE('',#1073,#280);
#210=LINE('',#1076,#281);
#211=LINE('',#1077,#282);
#212=LINE('',#1081,#283);
#213=LINE('',#1084,#284);
#214=LINE('',#1085,#285);
#215=LINE('',#1087,#286);
#216=LINE('',#1111,#287);
#217=LINE('',#1115,#288);
#218=LINE('',#1119,#289);
#219=LINE('',#1123,#290);
#220=LINE('',#1127,#291);
#221=LINE('',#1131,#292);
#222=LINE('',#1135,#293);
#223=LINE('',#1139,#294);
#224=LINE('',#1142,#295);
#225=VECTOR('',#771,10.);
#226=VECTOR('',#772,10.);
#227=VECTOR('',#773,10.);
#228=VECTOR('',#774,10.);
#229=VECTOR('',#775,10.);
#230=VECTOR('',#776,10.);
#231=VECTOR('',#777,10.);
#232=VECTOR('',#778,10.);
#233=VECTOR('',#779,10.);
#234=VECTOR('',#780,10.);
#235=VECTOR('',#781,10.);
#236=VECTOR('',#782,10.);
#237=VECTOR('',#783,10.);
#238=VECTOR('',#784,10.);
#239=VECTOR('',#785,10.);
#240=VECTOR('',#786,10.);
#241=VECTOR('',#789,10.);
#242=VECTOR('',#790,10.);
#243=VECTOR('',#793,10.);
#244=VECTOR('',#794,10.);
#245=VECTOR('',#797,10.);
#246=VECTOR('',#798,10.);
#247=VECTOR('',#799,10.);
#248=VECTOR('',#802,10.);
#249=VECTOR('',#803,10.);
#250=VECTOR('',#806,10.);
#251=VECTOR('',#807,10.);
#252=VECTOR('',#810,10.);
#253=VECTOR('',#811,10.);
#254=VECTOR('',#814,10.);
#255=VECTOR('',#815,10.);
#256=VECTOR('',#818,10.);
#257=VECTOR('',#819,10.);
#258=VECTOR('',#822,10.);
#259=VECTOR('',#823,10.);
#260=VECTOR('',#826,10.);
#261=VECTOR('',#827,10.);
#262=VECTOR('',#830,10.);
#263=VECTOR('',#831,10.);
#264=VECTOR('',#834,10.);
#265=VECTOR('',#835,10.);
#266=VECTOR('',#838,10.);
#267=VECTOR('',#839,10.);
#268=VECTOR('',#842,10.);
#269=VECTOR('',#843,10.);
#270=VECTOR('',#846,10.);
#271=VECTOR('',#847,10.);
#272=VECTOR('',#850,10.);
#273=VECTOR('',#851,10.);
#274=VECTOR('',#854,10.);
#275=VECTOR('',#855,10.);
#276=VECTOR('',#858,10.);
#277=VECTOR('',#861,10.);
#278=VECTOR('',#864,10.);
#279=VECTOR('',#867,10.);
#280=VECTOR('',#868,10.);
#281=VECTOR('',#871,10.);
#282=VECTOR('',#872,10.);
#283=VECTOR('',#877,10.);
#284=VECTOR('',#880,10.);
#285=VECTOR('',#881,10.);
#286=VECTOR('',#884,10.);
#287=VECTOR('',#911,1.2);
#288=VECTOR('',#916,1.2);
#289=VECTOR('',#921,1.2);
#290=VECTOR('',#926,1.2);
#291=VECTOR('',#931,1.2);
#292=VECTOR('',#936,1.2);
#293=VECTOR('',#941,1.2);
#294=VECTOR('',#946,1.2);
#295=VECTOR('',#949,51.);
#296=VERTEX_POINT('',#956);
#297=VERTEX_POINT('',#957);
#298=VERTEX_POINT('',#959);
#299=VERTEX_POINT('',#961);
#300=VERTEX_POINT('',#963);
#301=VERTEX_POINT('',#965);
#302=VERTEX_POINT('',#967);
#303=VERTEX_POINT('',#969);
#304=VERTEX_POINT('',#971);
#305=VERTEX_POINT('',#973);
#306=VERTEX_POINT('',#975);
#307=VERTEX_POINT('',#977);
#308=VERTEX_POINT('',#979);
#309=VERTEX_POINT('',#981);
#310=VERTEX_POINT('',#983);
#311=VERTEX_POINT('',#985);
#312=VERTEX_POINT('',#988);
#313=VERTEX_POINT('',#989);
#314=VERTEX_POINT('',#991);
#315=VERTEX_POINT('',#993);
#316=VERTEX_POINT('',#995);
#317=VERTEX_POINT('',#997);
#318=VERTEX_POINT('',#1001);
#319=VERTEX_POINT('',#1003);
#320=VERTEX_POINT('',#1007);
#321=VERTEX_POINT('',#1011);
#322=VERTEX_POINT('',#1015);
#323=VERTEX_POINT('',#1019);
#324=VERTEX_POINT('',#1023);
#325=VERTEX_POINT('',#1027);
#326=VERTEX_POINT('',#1031);
#327=VERTEX_POINT('',#1035);
#328=VERTEX_POINT('',#1039);
#329=VERTEX_POINT('',#1043);
#330=VERTEX_POINT('',#1047);
#331=VERTEX_POINT('',#1051);
#332=VERTEX_POINT('',#1055);
#333=VERTEX_POINT('',#1059);
#334=VERTEX_POINT('',#1065);
#335=VERTEX_POINT('',#1067);
#336=VERTEX_POINT('',#1071);
#337=VERTEX_POINT('',#1075);
#338=VERTEX_POINT('',#1079);
#339=VERTEX_POINT('',#1083);
#340=VERTEX_POINT('',#1090);
#341=VERTEX_POINT('',#1092);
#342=VERTEX_POINT('',#1094);
#343=VERTEX_POINT('',#1096);
#344=VERTEX_POINT('',#1098);
#345=VERTEX_POINT('',#1100);
#346=VERTEX_POINT('',#1102);
#347=VERTEX_POINT('',#1104);
#348=VERTEX_POINT('',#1106);
#349=VERTEX_POINT('',#1109);
#350=VERTEX_POINT('',#1113);
#351=VERTEX_POINT('',#1117);
#352=VERTEX_POINT('',#1121);
#353=VERTEX_POINT('',#1125);
#354=VERTEX_POINT('',#1129);
#355=VERTEX_POINT('',#1133);
#356=VERTEX_POINT('',#1137);
#357=VERTEX_POINT('',#1141);
#358=EDGE_CURVE('',#296,#297,#154,.T.);
#359=EDGE_CURVE('',#296,#298,#155,.T.);
#360=EDGE_CURVE('',#298,#299,#156,.T.);
#361=EDGE_CURVE('',#300,#299,#157,.T.);
#362=EDGE_CURVE('',#301,#300,#158,.T.);
#363=EDGE_CURVE('',#301,#302,#159,.T.);
#364=EDGE_CURVE('',#302,#303,#160,.T.);
#365=EDGE_CURVE('',#304,#303,#161,.T.);
#366=EDGE_CURVE('',#305,#304,#162,.T.);
#367=EDGE_CURVE('',#305,#306,#163,.T.);
#368=EDGE_CURVE('',#306,#307,#164,.T.);
#369=EDGE_CURVE('',#308,#307,#165,.T.);
#370=EDGE_CURVE('',#309,#308,#166,.T.);
#371=EDGE_CURVE('',#309,#310,#167,.T.);
#372=EDGE_CURVE('',#310,#311,#168,.T.);
#373=EDGE_CURVE('',#297,#311,#169,.T.);
#374=EDGE_CURVE('',#312,#313,#44,.T.);
#375=EDGE_CURVE('',#313,#314,#170,.T.);
#376=EDGE_CURVE('',#314,#315,#171,.T.);
#377=EDGE_CURVE('',#315,#316,#45,.T.);
#378=EDGE_CURVE('',#316,#317,#172,.T.);
#379=EDGE_CURVE('',#317,#312,#173,.T.);
#380=EDGE_CURVE('',#297,#318,#174,.T.);
#381=EDGE_CURVE('',#319,#318,#175,.T.);
#382=EDGE_CURVE('',#296,#319,#176,.T.);
#383=EDGE_CURVE('',#320,#319,#177,.T.);
#384=EDGE_CURVE('',#298,#320,#178,.T.);
#385=EDGE_CURVE('',#321,#320,#179,.T.);
#386=EDGE_CURVE('',#299,#321,#180,.T.);
#387=EDGE_CURVE('',#322,#321,#181,.T.);
#388=EDGE_CURVE('',#300,#322,#182,.T.);
#389=EDGE_CURVE('',#323,#322,#183,.T.);
#390=EDGE_CURVE('',#301,#323,#184,.T.);
#391=EDGE_CURVE('',#324,#323,#185,.T.);
#392=EDGE_CURVE('',#302,#324,#186,.T.);
#393=EDGE_CURVE('',#325,#324,#187,.T.);
#394=EDGE_CURVE('',#303,#325,#188,.T.);
#395=EDGE_CURVE('',#326,#325,#189,.T.);
#396=EDGE_CURVE('',#304,#326,#190,.T.);
#397=EDGE_CURVE('',#327,#326,#191,.T.);
#398=EDGE_CURVE('',#305,#327,#192,.T.);
#399=EDGE_CURVE('',#328,#327,#193,.T.);
#400=EDGE_CURVE('',#306,#328,#194,.T.);
#401=EDGE_CURVE('',#329,#328,#195,.T.);
#402=EDGE_CURVE('',#307,#329,#196,.T.);
#403=EDGE_CURVE('',#330,#329,#197,.T.);
#404=EDGE_CURVE('',#308,#330,#198,.T.);
#405=EDGE_CURVE('',#331,#330,#199,.T.);
#406=EDGE_CURVE('',#309,#331,#200,.T.);
#407=EDGE_CURVE('',#332,#331,#201,.T.);
#408=EDGE_CURVE('',#310,#332,#202,.T.);
#409=EDGE_CURVE('',#333,#332,#203,.T.);
#410=EDGE_CURVE('',#311,#333,#204,.T.);
#411=EDGE_CURVE('',#318,#333,#205,.T.);
#412=EDGE_CURVE('',#312,#334,#206,.T.);
#413=EDGE_CURVE('',#335,#334,#46,.T.);
#414=EDGE_CURVE('',#313,#335,#207,.T.);
#415=EDGE_CURVE('',#336,#335,#208,.T.);
#416=EDGE_CURVE('',#314,#336,#209,.T.);
#417=EDGE_CURVE('',#337,#336,#210,.T.);
#418=EDGE_CURVE('',#315,#337,#211,.T.);
#419=EDGE_CURVE('',#338,#337,#47,.T.);
#420=EDGE_CURVE('',#316,#338,#212,.T.);
#421=EDGE_CURVE('',#339,#338,#213,.T.);
#422=EDGE_CURVE('',#317,#339,#214,.T.);
#423=EDGE_CURVE('',#334,#339,#215,.T.);
#424=EDGE_CURVE('',#340,#340,#48,.T.);
#425=EDGE_CURVE('',#341,#341,#49,.T.);
#426=EDGE_CURVE('',#342,#342,#50,.T.);
#427=EDGE_CURVE('',#343,#343,#51,.T.);
#428=EDGE_CURVE('',#344,#344,#52,.T.);
#429=EDGE_CURVE('',#345,#345,#53,.T.);
#430=EDGE_CURVE('',#346,#346,#54,.T.);
#431=EDGE_CURVE('',#347,#347,#55,.T.);
#432=EDGE_CURVE('',#348,#348,#56,.T.);
#433=EDGE_CURVE('',#349,#349,#57,.T.);
#434=EDGE_CURVE('',#349,#341,#216,.T.);
#435=EDGE_CURVE('',#350,#350,#58,.T.);
#436=EDGE_CURVE('',#350,#342,#217,.T.);
#437=EDGE_CURVE('',#351,#351,#59,.T.);
#438=EDGE_CURVE('',#351,#343,#218,.T.);
#439=EDGE_CURVE('',#352,#352,#60,.T.);
#440=EDGE_CURVE('',#352,#344,#219,.T.);
#441=EDGE_CURVE('',#353,#353,#61,.T.);
#442=EDGE_CURVE('',#353,#345,#220,.T.);
#443=EDGE_CURVE('',#354,#354,#62,.T.);
#444=EDGE_CURVE('',#354,#346,#221,.T.);
#445=EDGE_CURVE('',#355,#355,#63,.T.);
#446=EDGE_CURVE('',#355,#347,#222,.T.);
#447=EDGE_CURVE('',#356,#356,#64,.T.);
#448=EDGE_CURVE('',#356,#348,#223,.T.);
#449=EDGE_CURVE('',#340,#357,#224,.T.);
#450=EDGE_CURVE('',#357,#357,#65,.T.);
#451=ORIENTED_EDGE('',*,*,#358,.F.);
#452=ORIENTED_EDGE('',*,*,#359,.T.);
#453=ORIENTED_EDGE('',*,*,#360,.T.);
#454=ORIENTED_EDGE('',*,*,#361,.F.);
#455=ORIENTED_EDGE('',*,*,#362,.F.);
#456=ORIENTED_EDGE('',*,*,#363,.T.);
#457=ORIENTED_EDGE('',*,*,#364,.T.);
#458=ORIENTED_EDGE('',*,*,#365,.F.);
#459=ORIENTED_EDGE('',*,*,#366,.F.);
#460=ORIENTED_EDGE('',*,*,#367,.T.);
#461=ORIENTED_EDGE('',*,*,#368,.T.);
#462=ORIENTED_EDGE('',*,*,#369,.F.);
#463=ORIENTED_EDGE('',*,*,#370,.F.);
#464=ORIENTED_EDGE('',*,*,#371,.T.);
#465=ORIENTED_EDGE('',*,*,#372,.T.);
#466=ORIENTED_EDGE('',*,*,#373,.F.);
#467=ORIENTED_EDGE('',*,*,#374,.T.);
#468=ORIENTED_EDGE('',*,*,#375,.T.);
#469=ORIENTED_EDGE('',*,*,#376,.T.);
#470=ORIENTED_EDGE('',*,*,#377,.T.);
#471=ORIENTED_EDGE('',*,*,#378,.T.);
#472=ORIENTED_EDGE('',*,*,#379,.T.);
#473=ORIENTED_EDGE('',*,*,#358,.T.);
#474=ORIENTED_EDGE('',*,*,#380,.T.);
#475=ORIENTED_EDGE('',*,*,#381,.F.);
#476=ORIENTED_EDGE('',*,*,#382,.F.);
#477=ORIENTED_EDGE('',*,*,#359,.F.);
#478=ORIENTED_EDGE('',*,*,#382,.T.);
#479=ORIENTED_EDGE('',*,*,#383,.F.);
#480=ORIENTED_EDGE('',*,*,#384,.F.);
#481=ORIENTED_EDGE('',*,*,#360,.F.);
#482=ORIENTED_EDGE('',*,*,#384,.T.);
#483=ORIENTED_EDGE('',*,*,#385,.F.);
#484=ORIENTED_EDGE('',*,*,#386,.F.);
#485=ORIENTED_EDGE('',*,*,#361,.T.);
#486=ORIENTED_EDGE('',*,*,#386,.T.);
#487=ORIENTED_EDGE('',*,*,#387,.F.);
#488=ORIENTED_EDGE('',*,*,#388,.F.);
#489=ORIENTED_EDGE('',*,*,#362,.T.);
#490=ORIENTED_EDGE('',*,*,#388,.T.);
#491=ORIENTED_EDGE('',*,*,#389,.F.);
#492=ORIENTED_EDGE('',*,*,#390,.F.);
#493=ORIENTED_EDGE('',*,*,#363,.F.);
#494=ORIENTED_EDGE('',*,*,#390,.T.);
#495=ORIENTED_EDGE('',*,*,#391,.F.);
#496=ORIENTED_EDGE('',*,*,#392,.F.);
#497=ORIENTED_EDGE('',*,*,#364,.F.);
#498=ORIENTED_EDGE('',*,*,#392,.T.);
#499=ORIENTED_EDGE('',*,*,#393,.F.);
#500=ORIENTED_EDGE('',*,*,#394,.F.);
#501=ORIENTED_EDGE('',*,*,#365,.T.);
#502=ORIENTED_EDGE('',*,*,#394,.T.);
#503=ORIENTED_EDGE('',*,*,#395,.F.);
#504=ORIENTED_EDGE('',*,*,#396,.F.);
#505=ORIENTED_EDGE('',*,*,#366,.T.);
#506=ORIENTED_EDGE('',*,*,#396,.T.);
#507=ORIENTED_EDGE('',*,*,#397,.F.);
#508=ORIENTED_EDGE('',*,*,#398,.F.);
#509=ORIENTED_EDGE('',*,*,#367,.F.);
#510=ORIENTED_EDGE('',*,*,#398,.T.);
#511=ORIENTED_EDGE('',*,*,#399,.F.);
#512=ORIENTED_EDGE('',*,*,#400,.F.);
#513=ORIENTED_EDGE('',*,*,#368,.F.);
#514=ORIENTED_EDGE('',*,*,#400,.T.);
#515=ORIENTED_EDGE('',*,*,#401,.F.);
#516=ORIENTED_EDGE('',*,*,#402,.F.);
#517=ORIENTED_EDGE('',*,*,#369,.T.);
#518=ORIENTED_EDGE('',*,*,#402,.T.);
#519=ORIENTED_EDGE('',*,*,#403,.F.);
#520=ORIENTED_EDGE('',*,*,#404,.F.);
#521=ORIENTED_EDGE('',*,*,#370,.T.);
#522=ORIENTED_EDGE('',*,*,#404,.T.);
#523=ORIENTED_EDGE('',*,*,#405,.F.);
#524=ORIENTED_EDGE('',*,*,#406,.F.);
#525=ORIENTED_EDGE('',*,*,#371,.F.);
#526=ORIENTED_EDGE('',*,*,#406,.T.);
#527=ORIENTED_EDGE('',*,*,#407,.F.);
#528=ORIENTED_EDGE('',*,*,#408,.F.);
#529=ORIENTED_EDGE('',*,*,#372,.F.);
#530=ORIENTED_EDGE('',*,*,#408,.T.);
#531=ORIENTED_EDGE('',*,*,#409,.F.);
#532=ORIENTED_EDGE('',*,*,#410,.F.);
#533=ORIENTED_EDGE('',*,*,#373,.T.);
#534=ORIENTED_EDGE('',*,*,#410,.T.);
#535=ORIENTED_EDGE('',*,*,#411,.F.);
#536=ORIENTED_EDGE('',*,*,#380,.F.);
#537=ORIENTED_EDGE('',*,*,#374,.F.);
#538=ORIENTED_EDGE('',*,*,#412,.T.);
#539=ORIENTED_EDGE('',*,*,#413,.F.);
#540=ORIENTED_EDGE('',*,*,#414,.F.);
#541=ORIENTED_EDGE('',*,*,#375,.F.);
#542=ORIENTED_EDGE('',*,*,#414,.T.);
#543=ORIENTED_EDGE('',*,*,#415,.F.);
#544=ORIENTED_EDGE('',*,*,#416,.F.);
#545=ORIENTED_EDGE('',*,*,#376,.F.);
#546=ORIENTED_EDGE('',*,*,#416,.T.);
#547=ORIENTED_EDGE('',*,*,#417,.F.);
#548=ORIENTED_EDGE('',*,*,#418,.F.);
#549=ORIENTED_EDGE('',*,*,#377,.F.);
#550=ORIENTED_EDGE('',*,*,#418,.T.);
#551=ORIENTED_EDGE('',*,*,#419,.F.);
#552=ORIENTED_EDGE('',*,*,#420,.F.);
#553=ORIENTED_EDGE('',*,*,#378,.F.);
#554=ORIENTED_EDGE('',*,*,#420,.T.);
#555=ORIENTED_EDGE('',*,*,#421,.F.);
#556=ORIENTED_EDGE('',*,*,#422,.F.);
#557=ORIENTED_EDGE('',*,*,#379,.F.);
#558=ORIENTED_EDGE('',*,*,#422,.T.);
#559=ORIENTED_EDGE('',*,*,#423,.F.);
#560=ORIENTED_EDGE('',*,*,#412,.F.);
#561=ORIENTED_EDGE('',*,*,#413,.T.);
#562=ORIENTED_EDGE('',*,*,#423,.T.);
#563=ORIENTED_EDGE('',*,*,#421,.T.);
#564=ORIENTED_EDGE('',*,*,#419,.T.);
#565=ORIENTED_EDGE('',*,*,#417,.T.);
#566=ORIENTED_EDGE('',*,*,#415,.T.);
#567=ORIENTED_EDGE('',*,*,#424,.T.);
#568=ORIENTED_EDGE('',*,*,#425,.T.);
#569=ORIENTED_EDGE('',*,*,#426,.T.);
#570=ORIENTED_EDGE('',*,*,#427,.T.);
#571=ORIENTED_EDGE('',*,*,#428,.T.);
#572=ORIENTED_EDGE('',*,*,#429,.T.);
#573=ORIENTED_EDGE('',*,*,#430,.T.);
#574=ORIENTED_EDGE('',*,*,#431,.T.);
#575=ORIENTED_EDGE('',*,*,#432,.T.);
#576=ORIENTED_EDGE('',*,*,#381,.T.);
#577=ORIENTED_EDGE('',*,*,#411,.T.);
#578=ORIENTED_EDGE('',*,*,#409,.T.);
#579=ORIENTED_EDGE('',*,*,#407,.T.);
#580=ORIENTED_EDGE('',*,*,#405,.T.);
#581=ORIENTED_EDGE('',*,*,#403,.T.);
#582=ORIENTED_EDGE('',*,*,#401,.T.);
#583=ORIENTED_EDGE('',*,*,#399,.T.);
#584=ORIENTED_EDGE('',*,*,#397,.T.);
#585=ORIENTED_EDGE('',*,*,#395,.T.);
#586=ORIENTED_EDGE('',*,*,#393,.T.);
#587=ORIENTED_EDGE('',*,*,#391,.T.);
#588=ORIENTED_EDGE('',*,*,#389,.T.);
#589=ORIENTED_EDGE('',*,*,#387,.T.);
#590=ORIENTED_EDGE('',*,*,#385,.T.);
#591=ORIENTED_EDGE('',*,*,#383,.T.);
#592=ORIENTED_EDGE('',*,*,#433,.F.);
#593=ORIENTED_EDGE('',*,*,#434,.T.);
#594=ORIENTED_EDGE('',*,*,#425,.F.);
#595=ORIENTED_EDGE('',*,*,#434,.F.);
#596=ORIENTED_EDGE('',*,*,#435,.F.);
#597=ORIENTED_EDGE('',*,*,#436,.T.);
#598=ORIENTED_EDGE('',*,*,#426,.F.);
#599=ORIENTED_EDGE('',*,*,#436,.F.);
#600=ORIENTED_EDGE('',*,*,#437,.F.);
#601=ORIENTED_EDGE('',*,*,#438,.T.);
#602=ORIENTED_EDGE('',*,*,#427,.F.);
#603=ORIENTED_EDGE('',*,*,#438,.F.);
#604=ORIENTED_EDGE('',*,*,#439,.F.);
#605=ORIENTED_EDGE('',*,*,#440,.T.);
#606=ORIENTED_EDGE('',*,*,#428,.F.);
#607=ORIENTED_EDGE('',*,*,#440,.F.);
#608=ORIENTED_EDGE('',*,*,#441,.F.);
#609=ORIENTED_EDGE('',*,*,#442,.T.);
#610=ORIENTED_EDGE('',*,*,#429,.F.);
#611=ORIENTED_EDGE('',*,*,#442,.F.);
#612=ORIENTED_EDGE('',*,*,#443,.F.);
#613=ORIENTED_EDGE('',*,*,#444,.T.);
#614=ORIENTED_EDGE('',*,*,#430,.F.);
#615=ORIENTED_EDGE('',*,*,#444,.F.);
#616=ORIENTED_EDGE('',*,*,#445,.F.);
#617=ORIENTED_EDGE('',*,*,#446,.T.);
#618=ORIENTED_EDGE('',*,*,#431,.F.);
#619=ORIENTED_EDGE('',*,*,#446,.F.);
#620=ORIENTED_EDGE('',*,*,#447,.F.);
#621=ORIENTED_EDGE('',*,*,#448,.T.);
#622=ORIENTED_EDGE('',*,*,#432,.F.);
#623=ORIENTED_EDGE('',*,*,#448,.F.);
#624=ORIENTED_EDGE('',*,*,#424,.F.);
#625=ORIENTED_EDGE('',*,*,#449,.T.);
#626=ORIENTED_EDGE('',*,*,#450,.T.);
#627=ORIENTED_EDGE('',*,*,#449,.F.);
#628=ORIENTED_EDGE('',*,*,#450,.F.);
#629=ORIENTED_EDGE('',*,*,#433,.T.);
#630=ORIENTED_EDGE('',*,*,#435,.T.);
#631=ORIENTED_EDGE('',*,*,#437,.T.);
#632=ORIENTED_EDGE('',*,*,#439,.T.);
#633=ORIENTED_EDGE('',*,*,#441,.T.);
#634=ORIENTED_EDGE('',*,*,#443,.T.);
#635=ORIENTED_EDGE('',*,*,#445,.T.);
#636=ORIENTED_EDGE('',*,*,#447,.T.);
#637=PLANE('',#710);
#638=PLANE('',#713);
#639=PLANE('',#714);
#640=PLANE('',#715);
#641=PLANE('',#716);
#642=PLANE('',#717);
#643=PLANE('',#718);
#644=PLANE('',#719);
#645=PLANE('',#720);
#646=PLANE('',#721);
#647=PLANE('',#722);
#648=PLANE('',#723);
#649=PLANE('',#724);
#650=PLANE('',#725);
#651=PLANE('',#726);
#652=PLANE('',#727);
#653=PLANE('',#728);
#654=PLANE('',#731);
#655=PLANE('',#732);
#656=PLANE('',#735);
#657=PLANE('',#736);
#658=PLANE('',#737);
#659=PLANE('',#738);
#660=PLANE('',#766);
#661=ADVANCED_FACE('',(#66,#26),#637,.T.);
#662=ADVANCED_FACE('',(#67),#638,.T.);
#663=ADVANCED_FACE('',(#68),#639,.T.);
#664=ADVANCED_FACE('',(#69),#640,.T.);
#665=ADVANCED_FACE('',(#70),#641,.T.);
#666=ADVANCED_FACE('',(#71),#642,.T.);
#667=ADVANCED_FACE('',(#72),#643,.T.);
#668=ADVANCED_FACE('',(#73),#644,.T.);
#669=ADVANCED_FACE('',(#74),#645,.T.);
#670=ADVANCED_FACE('',(#75),#646,.T.);
#671=ADVANCED_FACE('',(#76),#647,.T.);
#672=ADVANCED_FACE('',(#77),#648,.T.);
#673=ADVANCED_FACE('',(#78),#649,.T.);
#674=ADVANCED_FACE('',(#79),#650,.T.);
#675=ADVANCED_FACE('',(#80),#651,.T.);
#676=ADVANCED_FACE('',(#81),#652,.T.);
#677=ADVANCED_FACE('',(#82),#653,.T.);
#678=ADVANCED_FACE('',(#83),#15,.T.);
#679=ADVANCED_FACE('',(#84),#654,.T.);
#680=ADVANCED_FACE('',(#85),#655,.T.);
#681=ADVANCED_FACE('',(#86),#16,.T.);
#682=ADVANCED_FACE('',(#87),#656,.T.);
#683=ADVANCED_FACE('',(#88),#657,.T.);
#684=ADVANCED_FACE('',(#89),#658,.T.);
#685=ADVANCED_FACE('',(#90,#27,#28,#29,#30,#31,#32,#33,#34,#35),#659,.T.);
#686=ADVANCED_FACE('',(#91),#17,.F.);
#687=ADVANCED_FACE('',(#92),#18,.F.);
#688=ADVANCED_FACE('',(#93),#19,.F.);
#689=ADVANCED_FACE('',(#94),#20,.F.);
#690=ADVANCED_FACE('',(#95),#21,.F.);
#691=ADVANCED_FACE('',(#96),#22,.F.);
#692=ADVANCED_FACE('',(#97),#23,.F.);
#693=ADVANCED_FACE('',(#98),#24,.F.);
#694=ADVANCED_FACE('',(#99),#25,.T.);
#695=ADVANCED_FACE('',(#100,#36,#37,#38,#39,#40,#41,#42,#43),#660,.F.);
#696=CLOSED_SHELL('',(#661,#662,#663,#664,#665,#666,#667,#668,#669,#670,
#671,#672,#673,#674,#675,#676,#677,#678,#679,#680,#681,#682,#683,#684,#685,
#686,#687,#688,#689,#690,#691,#692,#693,#694,#695));
#697=DERIVED_UNIT_ELEMENT(#699,1.);
#698=DERIVED_UNIT_ELEMENT(#1150,-3.);
#699=(
MASS_UNIT()
NAMED_UNIT(*)
SI_UNIT(.KILO.,.GRAM.)
);
#700=DERIVED_UNIT((#697,#698));
#701=MEASURE_REPRESENTATION_ITEM('density measure',
POSITIVE_RATIO_MEASURE(7850.),#700);
#702=PROPERTY_DEFINITION_REPRESENTATION(#707,#704);
#703=PROPERTY_DEFINITION_REPRESENTATION(#708,#705);
#704=REPRESENTATION('material name',(#706),#1147);
#705=REPRESENTATION('density',(#701),#1147);
#706=DESCRIPTIVE_REPRESENTATION_ITEM('Steel','Steel');
#707=PROPERTY_DEFINITION('material property','material name',#1157);
#708=PROPERTY_DEFINITION('material property','density of part',#1157);
#709=AXIS2_PLACEMENT_3D('',#954,#767,#768);
#710=AXIS2_PLACEMENT_3D('',#955,#769,#770);
#711=AXIS2_PLACEMENT_3D('',#990,#787,#788);
#712=AXIS2_PLACEMENT_3D('',#996,#791,#792);
#713=AXIS2_PLACEMENT_3D('',#1000,#795,#796);
#714=AXIS2_PLACEMENT_3D('',#1006,#800,#801);
#715=AXIS2_PLACEMENT_3D('',#1010,#804,#805);
#716=AXIS2_PLACEMENT_3D('',#1014,#808,#809);
#717=AXIS2_PLACEMENT_3D('',#1018,#812,#813);
#718=AXIS2_PLACEMENT_3D('',#1022,#816,#817);
#719=AXIS2_PLACEMENT_3D('',#1026,#820,#821);
#720=AXIS2_PLACEMENT_3D('',#1030,#824,#825);
#721=AXIS2_PLACEMENT_3D('',#1034,#828,#829);
#722=AXIS2_PLACEMENT_3D('',#1038,#832,#833);
#723=AXIS2_PLACEMENT_3D('',#1042,#836,#837);
#724=AXIS2_PLACEMENT_3D('',#1046,#840,#841);
#725=AXIS2_PLACEMENT_3D('',#1050,#844,#845);
#726=AXIS2_PLACEMENT_3D('',#1054,#848,#849);
#727=AXIS2_PLACEMENT_3D('',#1058,#852,#853);
#728=AXIS2_PLACEMENT_3D('',#1062,#856,#857);
#729=AXIS2_PLACEMENT_3D('',#1064,#859,#860);
#730=AXIS2_PLACEMENT_3D('',#1068,#862,#863);
#731=AXIS2_PLACEMENT_3D('',#1070,#865,#866);
#732=AXIS2_PLACEMENT_3D('',#1074,#869,#870);
#733=AXIS2_PLACEMENT_3D('',#1078,#873,#874);
#734=AXIS2_PLACEMENT_3D('',#1080,#875,#876);
#735=AXIS2_PLACEMENT_3D('',#1082,#878,#879);
#736=AXIS2_PLACEMENT_3D('',#1086,#882,#883);
#737=AXIS2_PLACEMENT_3D('',#1088,#885,#886);
#738=AXIS2_PLACEMENT_3D('',#1089,#887,#888);
#739=AXIS2_PLACEMENT_3D('',#1091,#889,#890);
#740=AXIS2_PLACEMENT_3D('',#1093,#891,#892);
#741=AXIS2_PLACEMENT_3D('',#1095,#893,#894);
#742=AXIS2_PLACEMENT_3D('',#1097,#895,#896);
#743=AXIS2_PLACEMENT_3D('',#1099,#897,#898);
#744=AXIS2_PLACEMENT_3D('',#1101,#899,#900);
#745=AXIS2_PLACEMENT_3D('',#1103,#901,#902);
#746=AXIS2_PLACEMENT_3D('',#1105,#903,#904);
#747=AXIS2_PLACEMENT_3D('',#1107,#905,#906);
#748=AXIS2_PLACEMENT_3D('',#1108,#907,#908);
#749=AXIS2_PLACEMENT_3D('',#1110,#909,#910);
#750=AXIS2_PLACEMENT_3D('',#1112,#912,#913);
#751=AXIS2_PLACEMENT_3D('',#1114,#914,#915);
#752=AXIS2_PLACEMENT_3D('',#1116,#917,#918);
#753=AXIS2_PLACEMENT_3D('',#1118,#919,#920);
#754=AXIS2_PLACEMENT_3D('',#1120,#922,#923);
#755=AXIS2_PLACEMENT_3D('',#1122,#924,#925);
#756=AXIS2_PLACEMENT_3D('',#1124,#927,#928);
#757=AXIS2_PLACEMENT_3D('',#1126,#929,#930);
#758=AXIS2_PLACEMENT_3D('',#1128,#932,#933);
#759=AXIS2_PLACEMENT_3D('',#1130,#934,#935);
#760=AXIS2_PLACEMENT_3D('',#1132,#937,#938);
#761=AXIS2_PLACEMENT_3D('',#1134,#939,#940);
#762=AXIS2_PLACEMENT_3D('',#1136,#942,#943);
#763=AXIS2_PLACEMENT_3D('',#1138,#944,#945);
#764=AXIS2_PLACEMENT_3D('',#1140,#947,#948);
#765=AXIS2_PLACEMENT_3D('',#1143,#950,#951);
#766=AXIS2_PLACEMENT_3D('',#1144,#952,#953);
#767=DIRECTION('axis',(0.,0.,1.));
#768=DIRECTION('refdir',(1.,0.,0.));
#769=DIRECTION('center_axis',(0.,1.,0.));
#770=DIRECTION('ref_axis',(1.,0.,0.));
#771=DIRECTION('',(0.131872085971587,0.,-0.991266741569343));
#772=DIRECTION('',(-0.816352599800634,0.,-0.577553835411683));
#773=DIRECTION('',(0.577633384938845,0.,0.816296314216898));
#774=DIRECTION('',(0.985929232988259,0.,-0.167163236206959));
#775=DIRECTION('',(-0.991165597894168,0.,-0.132630153249913));
#776=DIRECTION('',(-0.540985915668245,0.,0.841031651633035));
#777=DIRECTION('',(0.78578834102531,0.,-0.618495499667291));
#778=DIRECTION('',(-0.159986646943321,0.,-0.987119178620207));
#779=DIRECTION('',(-0.142662698299855,0.,0.989771364767543));
#780=DIRECTION('',(0.822979553699854,0.,0.568070993971695));
#781=DIRECTION('',(-0.574141489154941,0.,-0.818756099477095));
#782=DIRECTION('',(-0.987119178620207,0.,0.159986646943322));
#783=DIRECTION('',(0.989998117719396,0.,0.14108056886777));
#784=DIRECTION('',(0.569409134427026,0.,-0.822054279005386));
#785=DIRECTION('',(-0.815361108145904,0.,0.57895272978291));
#786=DIRECTION('',(0.159986646943322,0.,0.987119178620207));
#787=DIRECTION('center_axis',(0.,-1.,0.));
#788=DIRECTION('ref_axis',(1.,0.,0.));
#789=DIRECTION('',(0.989998117719396,0.,0.14108056886777));
#790=DIRECTION('',(0.159986646943322,0.,0.987119178620207));
#791=DIRECTION('center_axis',(0.,-1.,0.));
#792=DIRECTION('ref_axis',(1.,0.,0.));
#793=DIRECTION('',(-0.991165597894168,0.,-0.132630153249913));
#794=DIRECTION('',(-0.159986646943321,0.,-0.987119178620207));
#795=DIRECTION('center_axis',(0.991266741569343,0.,0.131872085971587));
#796=DIRECTION('ref_axis',(0.131872085971587,0.,-0.991266741569343));
#797=DIRECTION('',(0.,1.,0.));
#798=DIRECTION('',(0.131872085971587,0.,-0.991266741569343));
#799=DIRECTION('',(0.,1.,0.));
#800=DIRECTION('center_axis',(-0.577553835411683,0.,0.816352599800634));
#801=DIRECTION('ref_axis',(0.816352599800634,0.,0.577553835411683));
#802=DIRECTION('',(0.816352599800634,0.,0.577553835411683));
#803=DIRECTION('',(0.,1.,0.));
#804=DIRECTION('center_axis',(0.816296314216898,0.,-0.577633384938845));
#805=DIRECTION('ref_axis',(-0.577633384938845,0.,-0.816296314216898));
#806=DIRECTION('',(-0.577633384938845,0.,-0.816296314216898));
#807=DIRECTION('',(0.,1.,0.));
#808=DIRECTION('center_axis',(0.167163236206959,0.,0.985929232988259));
#809=DIRECTION('ref_axis',(0.985929232988259,0.,-0.167163236206959));
#810=DIRECTION('',(0.985929232988259,0.,-0.167163236206959));
#811=DIRECTION('',(0.,1.,0.));
#812=DIRECTION('center_axis',(0.132630153249913,0.,-0.991165597894169));
#813=DIRECTION('ref_axis',(-0.991165597894168,0.,-0.132630153249913));
#814=DIRECTION('',(-0.991165597894168,0.,-0.132630153249913));
#815=DIRECTION('',(0.,1.,0.));
#816=DIRECTION('center_axis',(0.841031651633035,0.,0.540985915668245));
#817=DIRECTION('ref_axis',(0.540985915668245,0.,-0.841031651633035));
#818=DIRECTION('',(0.540985915668245,0.,-0.841031651633035));
#819=DIRECTION('',(0.,1.,0.));
#820=DIRECTION('center_axis',(-0.618495499667291,0.,-0.78578834102531));
#821=DIRECTION('ref_axis',(-0.78578834102531,0.,0.618495499667291));
#822=DIRECTION('',(-0.78578834102531,0.,0.618495499667291));
#823=DIRECTION('',(0.,1.,0.));
#824=DIRECTION('center_axis',(0.987119178620208,0.,-0.159986646943321));
#825=DIRECTION('ref_axis',(-0.159986646943321,0.,-0.987119178620207));
#826=DIRECTION('',(-0.159986646943321,0.,-0.987119178620207));
#827=DIRECTION('',(0.,1.,0.));
#828=DIRECTION('center_axis',(-0.989771364767543,0.,-0.142662698299855));
#829=DIRECTION('ref_axis',(-0.142662698299855,0.,0.989771364767543));
#830=DIRECTION('',(-0.142662698299855,0.,0.989771364767543));
#831=DIRECTION('',(0.,1.,0.));
#832=DIRECTION('center_axis',(0.568070993971695,0.,-0.822979553699854));
#833=DIRECTION('ref_axis',(-0.822979553699854,0.,-0.568070993971695));
#834=DIRECTION('',(-0.822979553699854,0.,-0.568070993971695));
#835=DIRECTION('',(0.,1.,0.));
#836=DIRECTION('center_axis',(-0.818756099477095,0.,0.574141489154941));
#837=DIRECTION('ref_axis',(0.574141489154941,0.,0.818756099477095));
#838=DIRECTION('',(0.574141489154941,0.,0.818756099477095));
#839=DIRECTION('',(0.,1.,0.));
#840=DIRECTION('center_axis',(-0.159986646943322,0.,-0.987119178620207));
#841=DIRECTION('ref_axis',(-0.987119178620207,0.,0.159986646943322));
#842=DIRECTION('',(-0.987119178620207,0.,0.159986646943322));
#843=DIRECTION('',(0.,1.,0.));
#844=DIRECTION('center_axis',(-0.14108056886777,0.,0.989998117719396));
#845=DIRECTION('ref_axis',(0.989998117719396,0.,0.14108056886777));
#846=DIRECTION('',(0.989998117719396,0.,0.14108056886777));
#847=DIRECTION('',(0.,1.,0.));
#848=DIRECTION('center_axis',(-0.822054279005386,0.,-0.569409134427026));
#849=DIRECTION('ref_axis',(-0.569409134427026,0.,0.822054279005386));
#850=DIRECTION('',(-0.569409134427026,0.,0.822054279005386));
#851=DIRECTION('',(0.,1.,0.));
#852=DIRECTION('center_axis',(0.57895272978291,0.,0.815361108145904));
#853=DIRECTION('ref_axis',(0.815361108145904,0.,-0.57895272978291));
#854=DIRECTION('',(0.815361108145904,0.,-0.57895272978291));
#855=DIRECTION('',(0.,1.,0.));
#856=DIRECTION('center_axis',(-0.987119178620207,0.,0.159986646943322));
#857=DIRECTION('ref_axis',(0.159986646943322,0.,0.987119178620207));
#858=DIRECTION('',(0.159986646943322,0.,0.987119178620207));
#859=DIRECTION('center_axis',(0.,-1.,0.));
#860=DIRECTION('ref_axis',(-0.646799124416031,0.,-0.762660404541009));
#861=DIRECTION('',(0.,1.,0.));
#862=DIRECTION('center_axis',(0.,1.,0.));
#863=DIRECTION('ref_axis',(1.,0.,0.));
#864=DIRECTION('',(0.,1.,0.));
#865=DIRECTION('center_axis',(0.14108056886777,0.,-0.989998117719396));
#866=DIRECTION('ref_axis',(-0.989998117719396,0.,-0.14108056886777));
#867=DIRECTION('',(-0.989998117719396,0.,-0.14108056886777));
#868=DIRECTION('',(0.,1.,0.));
#869=DIRECTION('center_axis',(0.987119178620207,0.,-0.159986646943322));
#870=DIRECTION('ref_axis',(-0.159986646943322,0.,-0.987119178620207));
#871=DIRECTION('',(-0.159986646943322,0.,-0.987119178620207));
#872=DIRECTION('',(0.,1.,0.));
#873=DIRECTION('center_axis',(0.,-1.,0.));
#874=DIRECTION('ref_axis',(1.,0.,0.));
#875=DIRECTION('center_axis',(0.,1.,0.));
#876=DIRECTION('ref_axis',(1.,0.,0.));
#877=DIRECTION('',(0.,1.,0.));
#878=DIRECTION('center_axis',(-0.132630153249913,0.,0.991165597894169));
#879=DIRECTION('ref_axis',(0.991165597894168,0.,0.132630153249913));
#880=DIRECTION('',(0.991165597894168,0.,0.132630153249913));
#881=DIRECTION('',(0.,1.,0.));
#882=DIRECTION('center_axis',(-0.987119178620208,0.,0.159986646943321));
#883=DIRECTION('ref_axis',(0.159986646943321,0.,0.987119178620207));
#884=DIRECTION('',(0.159986646943321,0.,0.987119178620207));
#885=DIRECTION('center_axis',(0.,1.,0.));
#886=DIRECTION('ref_axis',(1.,0.,0.));
#887=DIRECTION('center_axis',(0.,1.,0.));
#888=DIRECTION('ref_axis',(1.,0.,0.));
#889=DIRECTION('center_axis',(0.,1.,0.));
#890=DIRECTION('ref_axis',(1.,0.,0.));
#891=DIRECTION('center_axis',(0.,-1.,0.));
#892=DIRECTION('ref_axis',(1.,0.,0.));
#893=DIRECTION('center_axis',(0.,-1.,0.));
#894=DIRECTION('ref_axis',(1.,0.,0.));
#895=DIRECTION('center_axis',(0.,-1.,0.));
#896=DIRECTION('ref_axis',(1.,0.,0.));
#897=DIRECTION('center_axis',(0.,-1.,0.));
#898=DIRECTION('ref_axis',(1.,0.,0.));
#899=DIRECTION('center_axis',(0.,-1.,0.));
#900=DIRECTION('ref_axis',(1.,0.,0.));
#901=DIRECTION('center_axis',(0.,-1.,0.));
#902=DIRECTION('ref_axis',(1.,0.,0.));
#903=DIRECTION('center_axis',(0.,-1.,0.));
#904=DIRECTION('ref_axis',(1.,0.,0.));
#905=DIRECTION('center_axis',(0.,-1.,0.));
#906=DIRECTION('ref_axis',(1.,0.,0.));
#907=DIRECTION('center_axis',(0.,1.,0.));
#908=DIRECTION('ref_axis',(1.,0.,0.));
#909=DIRECTION('center_axis',(0.,1.,0.));
#910=DIRECTION('ref_axis',(1.,0.,0.));
#911=DIRECTION('',(0.,1.,0.));
#912=DIRECTION('center_axis',(0.,1.,0.));
#913=DIRECTION('ref_axis',(1.,0.,0.));
#914=DIRECTION('center_axis',(0.,1.,0.));
#915=DIRECTION('ref_axis',(1.,0.,0.));
#916=DIRECTION('',(0.,1.,0.));
#917=DIRECTION('center_axis',(0.,1.,0.));
#918=DIRECTION('ref_axis',(1.,0.,0.));
#919=DIRECTION('center_axis',(0.,1.,0.));
#920=DIRECTION('ref_axis',(1.,0.,0.));
#921=DIRECTION('',(0.,1.,0.));
#922=DIRECTION('center_axis',(0.,1.,0.));
#923=DIRECTION('ref_axis',(1.,0.,0.));
#924=DIRECTION('center_axis',(0.,1.,0.));
#925=DIRECTION('ref_axis',(1.,0.,0.));
#926=DIRECTION('',(0.,1.,0.));
#927=DIRECTION('center_axis',(0.,1.,0.));
#928=DIRECTION('ref_axis',(1.,0.,0.));
#929=DIRECTION('center_axis',(0.,1.,0.));
#930=DIRECTION('ref_axis',(1.,0.,0.));
#931=DIRECTION('',(0.,1.,0.));
#932=DIRECTION('center_axis',(0.,1.,0.));
#933=DIRECTION('ref_axis',(1.,0.,0.));
#934=DIRECTION('center_axis',(0.,1.,0.));
#935=DIRECTION('ref_axis',(1.,0.,0.));
#936=DIRECTION('',(0.,1.,0.));
#937=DIRECTION('center_axis',(0.,1.,0.));
#938=DIRECTION('ref_axis',(1.,0.,0.));
#939=DIRECTION('center_axis',(0.,1.,0.));
#940=DIRECTION('ref_axis',(1.,0.,0.));
#941=DIRECTION('',(0.,1.,0.));
#942=DIRECTION('center_axis',(0.,1.,0.));
#943=DIRECTION('ref_axis',(1.,0.,0.));
#944=DIRECTION('center_axis',(0.,1.,0.));
#945=DIRECTION('ref_axis',(1.,0.,0.));
#946=DIRECTION('',(0.,1.,0.));
#947=DIRECTION('center_axis',(0.,1.,0.));
#948=DIRECTION('ref_axis',(1.,0.,0.));
#949=DIRECTION('',(0.,-1.,0.));
#950=DIRECTION('center_axis',(0.,1.,0.));
#951=DIRECTION('ref_axis',(1.,0.,0.));
#952=DIRECTION('center_axis',(0.,1.,0.));
#953=DIRECTION('ref_axis',(1.,0.,0.));
#954=CARTESIAN_POINT('',(0.,0.,0.));
#955=CARTESIAN_POINT('Origin',(0.,2.,0.));
#956=CARTESIAN_POINT('',(-3.31645958821502,2.,-9.0705575825145));
#957=CARTESIAN_POINT('',(1.564621925354E-6,2.,-34.0000005066395));
#958=CARTESIAN_POINT('',(-3.81985970836,2.,-5.28655892104454));
#959=CARTESIAN_POINT('',(-18.7508228341482,2.,-19.9900740904583));
#960=CARTESIAN_POINT('',(-3.31645958821502,2.,-9.0705575825145));
#961=CARTESIAN_POINT('',(-7.86133183801038,2.,-4.60133168806662));
#962=CARTESIAN_POINT('',(-18.7508228341482,2.,-19.9900740904583));
#963=CARTESIAN_POINT('',(-34.9999989569187,2.,0.));
#964=CARTESIAN_POINT('',(-34.9999989569187,2.,0.));
#965=CARTESIAN_POINT('',(-8.42277709338154,2.,3.5563593169567));
#966=CARTESIAN_POINT('',(-3.98470198079501,2.,4.15022837735142));
#967=CARTESIAN_POINT('',(-18.9999987185001,2.,20.0000002980232));
#968=CARTESIAN_POINT('',(-8.42277709338154,2.,3.5563593169567));
#969=CARTESIAN_POINT('',(-4.16191761510195,2.,8.32091840406769));
#970=CARTESIAN_POINT('',(-18.9999987185001,2.,20.0000002980232));
#971=CARTESIAN_POINT('',(1.564621925354E-6,2.,34.0000005066395));
#972=CARTESIAN_POINT('',(1.564621925354E-6,2.,34.0000005066395));
#973=CARTESIAN_POINT('',(3.70130802086275,2.,8.32091840406769));
#974=CARTESIAN_POINT('',(4.27507952964415,2.,4.34018191107318));
#975=CARTESIAN_POINT('',(19.4187931374192,2.,19.1700912088563));
#976=CARTESIAN_POINT('',(3.70130802086276,2.,8.32091840406769));
#977=CARTESIAN_POINT('',(8.53533446196687,2.,3.64970408781908));
#978=CARTESIAN_POINT('',(19.4187931374192,2.,19.1700912088563));
#979=CARTESIAN_POINT('',(34.5625067451942,2.,-0.568631563231827));
#980=CARTESIAN_POINT('',(34.5625067451942,2.,-0.568631563231827));
#981=CARTESIAN_POINT('',(8.53533446196687,2.,-4.27765707147825));
#982=CARTESIAN_POINT('',(4.27507952964415,2.,-4.88476851807211));
#983=CARTESIAN_POINT('',(19.4187931374192,2.,-19.9900740904583));
#984=CARTESIAN_POINT('',(8.53533446196687,2.,-4.27765707147825));
#985=CARTESIAN_POINT('',(4.04042350148533,2.,-9.0705575825145));
#986=CARTESIAN_POINT('',(19.4187931374192,2.,-19.9900740904583));
#987=CARTESIAN_POINT('',(1.564621925354E-6,2.,-34.0000005066395));
#988=CARTESIAN_POINT('',(-5.02403438695428,2.,3.0016494777862));
#989=CARTESIAN_POINT('',(4.27507952964415,2.,-4.88476851807211));
#990=CARTESIAN_POINT('Origin',(1.5720724988455E-6,2.,-0.500000007450581));
#991=CARTESIAN_POINT('',(4.72932379369427,2.,-4.82003603219149));
#992=CARTESIAN_POINT('',(4.27507952964415,2.,-4.88476851807211));
#993=CARTESIAN_POINT('',(4.81652401972104,2.,-4.28200978352876));
#994=CARTESIAN_POINT('',(1.564621925354E-6,2.,-34.0000005066395));
#995=CARTESIAN_POINT('',(-3.98470198079501,2.,4.15022837735142));
#996=CARTESIAN_POINT('Origin',(1.5720724988455E-6,2.,-0.500000007450581));
#997=CARTESIAN_POINT('',(-4.85679276895922,2.,4.03353189885398));
#998=CARTESIAN_POINT('',(-3.98470198079501,2.,4.15022837735142));
#999=CARTESIAN_POINT('',(1.564621925354E-6,2.,34.0000005066395));
#1000=CARTESIAN_POINT('Origin',(-1.65822901179655,2.5,-21.535279044577));
#1001=CARTESIAN_POINT('',(1.564621925354E-6,2.5,-34.0000005066395));
#1002=CARTESIAN_POINT('',(1.564621925354E-6,2.5,-34.0000005066395));
#1003=CARTESIAN_POINT('',(-3.31645958821502,2.5,-9.0705575825145));
#1004=CARTESIAN_POINT('',(-3.05136079071108,2.5,-11.0632736244242));
#1005=CARTESIAN_POINT('',(-3.31645958821502,2.5,-9.0705575825145));
#1006=CARTESIAN_POINT('Origin',(-11.0336412111816,2.5,-14.5303158364864));
#1007=CARTESIAN_POINT('',(-18.7508228341482,2.5,-19.9900740904583));
#1008=CARTESIAN_POINT('',(-3.9316261197062,2.5,-9.50577612627414));
#1009=CARTESIAN_POINT('',(-18.7508228341482,2.5,-19.9900740904583));
#1010=CARTESIAN_POINT('Origin',(-13.3060773360793,2.5,-12.2957028892624));
#1011=CARTESIAN_POINT('',(-7.86133183801038,2.5,-4.60133168806662));
#1012=CARTESIAN_POINT('',(-8.1873873437283,2.5,-5.06210475708833));
#1013=CARTESIAN_POINT('',(-7.86133183801038,2.5,-4.60133168806662));
#1014=CARTESIAN_POINT('Origin',(-21.4306653974645,2.5,-2.30066584403331));
#1015=CARTESIAN_POINT('',(-34.9999989569187,2.5,0.));
#1016=CARTESIAN_POINT('',(-11.2043447660943,2.5,-4.03452745806479));
#1017=CARTESIAN_POINT('',(-34.9999989569187,2.5,0.));
#1018=CARTESIAN_POINT('Origin',(-21.7113880251501,2.5,1.77817965847835));
#1019=CARTESIAN_POINT('',(-8.42277709338154,2.5,3.5563593169567));
#1020=CARTESIAN_POINT('',(-11.1635322605449,2.5,3.1896125507113));
#1021=CARTESIAN_POINT('',(-8.42277709338154,2.5,3.5563593169567));
#1022=CARTESIAN_POINT('Origin',(-13.7113879059408,2.5,11.77817980749));
#1023=CARTESIAN_POINT('',(-18.9999987185001,2.5,20.0000002980232));
#1024=CARTESIAN_POINT('',(-9.02550592126269,2.5,4.4933782058377));
#1025=CARTESIAN_POINT('',(-18.9999987185001,2.5,20.0000002980232));
#1026=CARTESIAN_POINT('Origin',(-11.580958166801,2.5,14.1604593510455));
#1027=CARTESIAN_POINT('',(-4.16191761510195,2.5,8.32091840406769));
#1028=CARTESIAN_POINT('',(-4.56451172925032,2.5,8.63780099800947));
#1029=CARTESIAN_POINT('',(-4.16191761510195,2.5,8.32091840406769));
#1030=CARTESIAN_POINT('Origin',(-2.08095802524001,2.5,21.1604594553536));
#1031=CARTESIAN_POINT('',(1.564621925354E-6,2.5,34.0000005066395));
#1032=CARTESIAN_POINT('',(-3.72521837819378,2.5,11.0153569730164));
#1033=CARTESIAN_POINT('',(1.564621925354E-6,2.5,34.0000005066395));
#1034=CARTESIAN_POINT('Origin',(1.85065479274234,2.5,21.1604594553536));
#1035=CARTESIAN_POINT('',(3.70130802086275,2.5,8.32091840406769));
#1036=CARTESIAN_POINT('',(3.32578690969001,2.5,10.9262248165629));
#1037=CARTESIAN_POINT('',(3.70130802086275,2.5,8.32091840406769));
#1038=CARTESIAN_POINT('Origin',(11.560050579141,2.5,13.745504806462));
#1039=CARTESIAN_POINT('',(19.4187931374192,2.5,19.1700912088563));
#1040=CARTESIAN_POINT('',(4.43218028767073,2.5,8.82541129603008));
#1041=CARTESIAN_POINT('',(19.4187931374192,2.5,19.1700912088563));
#1042=CARTESIAN_POINT('Origin',(13.977063799693,2.5,11.4098976483377));
#1043=CARTESIAN_POINT('',(8.53533446196687,2.5,3.64970408781908));
#1044=CARTESIAN_POINT('',(8.99158210367362,2.5,4.30033733167202));
#1045=CARTESIAN_POINT('',(8.53533446196687,2.5,3.64970408781908));
#1046=CARTESIAN_POINT('Origin',(21.5489206035806,2.5,1.54053626229362));
#1047=CARTESIAN_POINT('',(34.5625067451942,2.5,-0.568631563231827));
#1048=CARTESIAN_POINT('',(11.1718857266444,2.5,3.22238689505666));
#1049=CARTESIAN_POINT('',(34.5625067451942,2.5,-0.568631563231827));
#1050=CARTESIAN_POINT('Origin',(21.5489206035806,2.5,-2.42314431735504));
#1051=CARTESIAN_POINT('',(8.53533446196687,2.5,-4.27765707147825));
#1052=CARTESIAN_POINT('',(11.1581318920019,2.5,-3.90389297351545));
#1053=CARTESIAN_POINT('',(8.53533446196687,2.5,-4.27765707147825));
#1054=CARTESIAN_POINT('Origin',(13.977063799693,2.5,-12.1338655809683));
#1055=CARTESIAN_POINT('',(19.4187931374192,2.5,-19.9900740904583));
#1056=CARTESIAN_POINT('',(8.87135318567571,2.5,-4.76276630656056));
#1057=CARTESIAN_POINT('',(19.4187931374192,2.5,-19.9900740904583));
#1058=CARTESIAN_POINT('Origin',(11.7296083194523,2.5,-14.5303158364864));
#1059=CARTESIAN_POINT('',(4.04042350148533,2.5,-9.0705575825145));
#1060=CARTESIAN_POINT('',(4.40104791180595,2.5,-9.32662141079329));
#1061=CARTESIAN_POINT('',(4.04042350148533,2.5,-9.0705575825145));
#1062=CARTESIAN_POINT('Origin',(2.02021253305363,2.5,-21.535279044577));
#1063=CARTESIAN_POINT('',(3.69484715667488,2.5,-11.2027670147224));
#1064=CARTESIAN_POINT('Origin',(1.5720724988455E-6,2.5,-0.500000007450581));
#1065=CARTESIAN_POINT('',(-5.02403438695428,2.5,3.0016494777862));
#1066=CARTESIAN_POINT('',(-5.02403438695428,2.5,3.0016494777862));
#1067=CARTESIAN_POINT('',(4.27507952964415,2.5,-4.88476851807211));
#1068=CARTESIAN_POINT('Origin',(1.5720724988455E-6,2.5,-0.500000007450581));
#1069=CARTESIAN_POINT('',(4.27507952964415,2.5,-4.88476851807211));
#1070=CARTESIAN_POINT('Origin',(4.50220166166921,2.5,-4.8524022751318));
#1071=CARTESIAN_POINT('',(4.72932379369427,2.5,-4.82003603219149));
#1072=CARTESIAN_POINT('',(2.63477242104619,2.5,-5.11852195240383));
#1073=CARTESIAN_POINT('',(4.72932379369427,2.5,-4.82003603219149));
#1074=CARTESIAN_POINT('Origin',(4.77292390670765,2.5,-4.55102290786012));
#1075=CARTESIAN_POINT('',(4.81652401972104,2.5,-4.28200978352876));
#1076=CARTESIAN_POINT('',(5.07120284350189,2.5,-2.71063894636395));
#1077=CARTESIAN_POINT('',(4.81652401972104,2.5,-4.28200978352876));
#1078=CARTESIAN_POINT('Origin',(1.5720724988455E-6,2.5,-0.500000007450581));
#1079=CARTESIAN_POINT('',(-3.98470198079501,2.5,4.15022837735142));
#1080=CARTESIAN_POINT('Origin',(1.5720724988455E-6,2.5,-0.500000007450581));
#1081=CARTESIAN_POINT('',(-3.98470198079501,2.5,4.15022837735142));
#1082=CARTESIAN_POINT('Origin',(-4.42074737487712,2.5,4.0918801381027));
#1083=CARTESIAN_POINT('',(-4.85679276895922,2.5,4.03353189885398));
#1084=CARTESIAN_POINT('',(-2.51821193540843,2.5,4.34646279052347));
#1085=CARTESIAN_POINT('',(-4.85679276895922,2.5,4.03353189885398));
#1086=CARTESIAN_POINT('Origin',(-4.94041357795675,2.5,3.51759068832008));
#1087=CARTESIAN_POINT('',(-5.15494615455215,2.5,2.19392258949963));
#1088=CARTESIAN_POINT('Origin',(0.,2.5,0.));
#1089=CARTESIAN_POINT('Origin',(0.,2.5,0.));
#1090=CARTESIAN_POINT('',(-51.,2.5,6.2456986756515E-15));
#1091=CARTESIAN_POINT('Origin',(0.,2.5,0.));
#1092=CARTESIAN_POINT('',(-47.9,2.5,-1.75455481132366));
#1093=CARTESIAN_POINT('Origin',(-46.7,2.5,-1.75455481132366));
#1094=CARTESIAN_POINT('',(-4.72239809247037,2.5,45.5640506504652));
#1095=CARTESIAN_POINT('Origin',(-3.52239809247036,2.5,45.5640506504652));
#1096=CARTESIAN_POINT('',(30.7933775458351,2.5,34.8383953879861));
#1097=CARTESIAN_POINT('Origin',(31.9933775458351,2.5,34.8383953879861));
#1098=CARTESIAN_POINT('',(31.8064189894394,2.5,-29.8467134789339));
#1099=CARTESIAN_POINT('Origin',(33.0064189894394,2.5,-29.8467134789339));
#1100=CARTESIAN_POINT('',(44.9627947269615,2.5,5.5898464197518));
#1101=CARTESIAN_POINT('Origin',(46.1627947269615,2.5,5.5898464197518));
#1102=CARTESIAN_POINT('',(2.53396205799899,2.5,-44.6441208598559));
#1103=CARTESIAN_POINT('Origin',(3.733962057999,2.5,-44.6441208598559));
#1104=CARTESIAN_POINT('',(-34.4299553203171,2.5,32.3841021090554));
#1105=CARTESIAN_POINT('Origin',(-33.2299553203171,2.5,32.3841021090554));
#1106=CARTESIAN_POINT('',(-33.8390855946777,2.5,-30.8334249077734));
#1107=CARTESIAN_POINT('Origin',(-32.6390855946777,2.5,-30.8334249077734));
#1108=CARTESIAN_POINT('Origin',(-46.7,0.,-1.75455481132366));
#1109=CARTESIAN_POINT('',(-47.9,0.,-1.75455481132366));
#1110=CARTESIAN_POINT('Origin',(-46.7,0.,-1.75455481132366));
#1111=CARTESIAN_POINT('',(-47.9,0.,-1.75455481132366));
#1112=CARTESIAN_POINT('Origin',(-3.52239809247036,0.,45.5640506504652));
#1113=CARTESIAN_POINT('',(-4.72239809247036,0.,45.5640506504652));
#1114=CARTESIAN_POINT('Origin',(-3.52239809247036,0.,45.5640506504652));
#1115=CARTESIAN_POINT('',(-4.72239809247036,0.,45.5640506504652));
#1116=CARTESIAN_POINT('Origin',(31.9933775458351,0.,34.8383953879861));
#1117=CARTESIAN_POINT('',(30.7933775458351,0.,34.8383953879861));
#1118=CARTESIAN_POINT('Origin',(31.9933775458351,0.,34.8383953879861));
#1119=CARTESIAN_POINT('',(30.7933775458351,0.,34.8383953879861));
#1120=CARTESIAN_POINT('Origin',(33.0064189894394,0.,-29.8467134789339));
#1121=CARTESIAN_POINT('',(31.8064189894394,0.,-29.8467134789339));
#1122=CARTESIAN_POINT('Origin',(33.0064189894394,0.,-29.8467134789339));
#1123=CARTESIAN_POINT('',(31.8064189894394,0.,-29.8467134789339));
#1124=CARTESIAN_POINT('Origin',(46.1627947269615,0.,5.5898464197518));
#1125=CARTESIAN_POINT('',(44.9627947269615,0.,5.5898464197518));
#1126=CARTESIAN_POINT('Origin',(46.1627947269615,0.,5.5898464197518));
#1127=CARTESIAN_POINT('',(44.9627947269615,0.,5.5898464197518));
#1128=CARTESIAN_POINT('Origin',(3.733962057999,0.,-44.6441208598559));
#1129=CARTESIAN_POINT('',(2.533962057999,0.,-44.6441208598559));
#1130=CARTESIAN_POINT('Origin',(3.733962057999,0.,-44.6441208598559));
#1131=CARTESIAN_POINT('',(2.533962057999,0.,-44.6441208598559));
#1132=CARTESIAN_POINT('Origin',(-33.2299553203171,0.,32.3841021090554));
#1133=CARTESIAN_POINT('',(-34.4299553203171,0.,32.3841021090554));
#1134=CARTESIAN_POINT('Origin',(-33.2299553203171,0.,32.3841021090554));
#1135=CARTESIAN_POINT('',(-34.4299553203171,0.,32.3841021090554));
#1136=CARTESIAN_POINT('Origin',(-32.6390855946777,0.,-30.8334249077734));
#1137=CARTESIAN_POINT('',(-33.8390855946777,0.,-30.8334249077734));
#1138=CARTESIAN_POINT('Origin',(-32.6390855946777,0.,-30.8334249077734));
#1139=CARTESIAN_POINT('',(-33.8390855946777,0.,-30.8334249077734));
#1140=CARTESIAN_POINT('Origin',(0.,0.,0.));
#1141=CARTESIAN_POINT('',(-51.,0.,6.2456986756515E-15));
#1142=CARTESIAN_POINT('',(-51.,0.,6.2456986756515E-15));
#1143=CARTESIAN_POINT('Origin',(0.,0.,0.));
#1144=CARTESIAN_POINT('Origin',(0.,0.,0.));
#1145=UNCERTAINTY_MEASURE_WITH_UNIT(LENGTH_MEASURE(0.01),#1149,
'DISTANCE_ACCURACY_VALUE',
'Maximum model space distance between geometric entities at asserted c
onnectivities');
#1146=UNCERTAINTY_MEASURE_WITH_UNIT(LENGTH_MEASURE(0.01),#1149,
'DISTANCE_ACCURACY_VALUE',
'Maximum model space distance between geometric entities at asserted c
onnectivities');
#1147=(
GEOMETRIC_REPRESENTATION_CONTEXT(3)
GLOBAL_UNCERTAINTY_ASSIGNED_CONTEXT((#1145))
GLOBAL_UNIT_ASSIGNED_CONTEXT((#1149,#1151,#1152))
REPRESENTATION_CONTEXT('','3D')
);
#1148=(
GEOMETRIC_REPRESENTATION_CONTEXT(3)
GLOBAL_UNCERTAINTY_ASSIGNED_CONTEXT((#1146))
GLOBAL_UNIT_ASSIGNED_CONTEXT((#1149,#1151,#1152))
REPRESENTATION_CONTEXT('','3D')
);
#1149=(
LENGTH_UNIT()
NAMED_UNIT(*)
SI_UNIT(.MILLI.,.METRE.)
);
#1150=(
LENGTH_UNIT()
NAMED_UNIT(*)
SI_UNIT($,.METRE.)
);
#1151=(
NAMED_UNIT(*)
PLANE_ANGLE_UNIT()
SI_UNIT($,.RADIAN.)
);
#1152=(
NAMED_UNIT(*)
SI_UNIT($,.STERADIAN.)
SOLID_ANGLE_UNIT()
);
#1153=SHAPE_DEFINITION_REPRESENTATION(#1154,#1155);
#1154=PRODUCT_DEFINITION_SHAPE('',$,#1157);
#1155=SHAPE_REPRESENTATION('',(#709),#1147);
#1156=PRODUCT_DEFINITION_CONTEXT('part definition',#1161,'design');
#1157=PRODUCT_DEFINITION('2026-06-30-11-55-46-724','middle lid',#1158,#1156);
#1158=PRODUCT_DEFINITION_FORMATION('',$,#1163);
#1159=PRODUCT_RELATED_PRODUCT_CATEGORY('middle lid','middle lid',(#1163));
#1160=APPLICATION_PROTOCOL_DEFINITION('international standard',
'automotive_design',2009,#1161);
#1161=APPLICATION_CONTEXT(
'Core Data for Automotive Mechanical Design Process');
#1162=PRODUCT_CONTEXT('part definition',#1161,'mechanical');
#1163=PRODUCT('2026-06-30-11-55-46-724','middle lid',$,(#1162));
#1164=PRESENTATION_STYLE_ASSIGNMENT((#1165));
#1165=SURFACE_STYLE_USAGE(.BOTH.,#1166);
#1166=SURFACE_SIDE_STYLE('',(#1167));
#1167=SURFACE_STYLE_FILL_AREA(#1168);
#1168=FILL_AREA_STYLE('Gold - Polished',(#1169));
#1169=FILL_AREA_STYLE_COLOUR('Gold - Polished',#1170);
#1170=COLOUR_RGB('Gold - Polished',0.956862745098039,0.898039215686275,
0.654901960784314);
ENDSEC;
END-ISO-10303-21;
