%TF.GenerationSoftware,KiCad,Pcbnew,10.0.3*%
%TF.CreationDate,2026-06-30T09:57:46+05:30*%
%TF.ProjectId,led chaser,6c656420-6368-4617-9365-722e6b696361,rev?*%
%TF.SameCoordinates,Original*%
%TF.FileFunction,Copper,L1,Top*%
%TF.FilePolarity,Positive*%
%FSLAX46Y46*%
G04 Gerber Fmt 4.6, Leading zero omitted, Abs format (unit mm)*
G04 Created by KiCad (PCBNEW 10.0.3) date 2026-09-23 09:57:46*
%MOMM*%
%LPD*%
G01*
G04 APERTURE LIST*
G04 Aperture macros list*
%AMRoundRect*
0 Rectangle with rounded corners*
0 $1 Rounding radius*
0 $2 $3 $4 $5 $6 $7 $8 $9 X,Y pos of 4 corners*
0 Add a 4 corners polygon primitive as box body*
4,1,4,$2,$3,$4,$5,$6,$7,$8,$9,$2,$3,0*
0 Add four circle primitives for the rounded corners*
1,1,$1+$1,$2,$3*
1,1,$1+$1,$4,$5*
1,1,$1+$1,$6,$7*
1,1,$1+$1,$8,$9*
0 Add four rect primitives between the rounded corners*
20,1,$1+$1,$2,$3,$4,$5,0*
20,1,$1+$1,$4,$5,$6,$7,0*
20,1,$1+$1,$6,$7,$8,$9,0*
20,1,$1+$1,$8,$9,$2,$3,0*%
G04 Aperture macros list end*
%TA.AperFunction,ComponentPad*%
%ADD10C,1.600000*%
%TD*%
%TA.AperFunction,ComponentPad*%
%ADD11R,1.800000X1.800000*%
%TD*%
%TA.AperFunction,ComponentPad*%
%ADD12C,1.800000*%
%TD*%
%TA.AperFunction,ComponentPad*%
%ADD13RoundRect,0.250000X-0.550000X-0.550000X0.550000X-0.550000X0.550000X0.550000X-0.550000X0.550000X0*%
%TD*%
%TA.AperFunction,ComponentPad*%
%ADD14C,1.440000*%
%TD*%
%TA.AperFunction,SMDPad,CuDef*%
%ADD15RoundRect,0.150000X-0.150000X-0.575000X0.150000X-0.575000X0.150000X0.575000X-0.150000X0.575000X0*%
%TD*%
%TA.AperFunction,SMDPad,CuDef*%
%ADD16RoundRect,0.075000X-0.075000X-0.650000X0.075000X-0.650000X0.075000X0.650000X-0.075000X0.650000X0*%
%TD*%
%TA.AperFunction,ComponentPad*%
%ADD17O,1.000000X2.100000*%
%TD*%
%TA.AperFunction,ComponentPad*%
%ADD18O,1.000000X1.600000*%
%TD*%
%TA.AperFunction,SMDPad,CuDef*%
%ADD19R,1.550000X1.300000*%
%TD*%
%TA.AperFunction,ComponentPad*%
%ADD20C,2.000000*%
%TD*%
%TA.AperFunction,ViaPad*%
%ADD21C,0.600000*%
%TD*%
%TA.AperFunction,ViaPad*%
%ADD22C,0.500000*%
%TD*%
%TA.AperFunction,Conductor*%
%ADD23C,0.300000*%
%TD*%
%TA.AperFunction,Conductor*%
%ADD24C,0.200000*%
%TD*%
G04 APERTURE END LIST*
D10*
%TO.P,R7,1*%
%TO.N,Net-(U2-Q1)*%
X105190000Y-92500000D03*
%TO.P,R7,2*%
%TO.N,Net-(D7-A)*%
X112810000Y-92500000D03*
%TD*%
D11*
%TO.P,D2,1,K_1*%
%TO.N,GND*%
X174230000Y-58500000D03*
D12*
%TO.P,D2,2,A_2*%
%TO.N,Net-(D2-A)*%
X176770000Y-58500000D03*
%TD*%
D11*
%TO.P,D1,1,K_1*%
%TO.N,GND*%
X143730000Y-46500000D03*
D12*
%TO.P,D1,2,A_2*%
%TO.N,Net-(D1-A)*%
X146270000Y-46500000D03*
%TD*%
D10*
%TO.P,R14,1*%
%TO.N,Net-(U2-Q8)*%
X150880000Y-113500000D03*
%TO.P,R14,2*%
%TO.N,GND*%
X158500000Y-113500000D03*
%TD*%
%TO.P,C2,1*%
%TO.N,GND*%
X126000000Y-91500000D03*
%TO.P,C2,2*%
%TO.N,Net-(U1-CONT)*%
X131000000Y-91500000D03*
%TD*%
%TO.P,R12,1*%
%TO.N,Net-(U2-Q6)*%
X166380000Y-64500000D03*
%TO.P,R12,2*%
%TO.N,Net-(D2-A)*%
X174000000Y-64500000D03*
%TD*%
%TO.P,R11,1*%
%TO.N,Net-(U2-Q5)*%
X179190000Y-92500000D03*
%TO.P,R11,2*%
%TO.N,Net-(D3-A)*%
X186810000Y-92500000D03*
%TD*%
%TO.P,R13,1*%
%TO.N,Net-(U2-Q7)*%
X140190000Y-55500000D03*
%TO.P,R13,2*%
%TO.N,Net-(D1-A)*%
X147810000Y-55500000D03*
%TD*%
%TO.P,R5,1*%
%TO.N,Net-(J1-CC2)*%
X166500000Y-83050000D03*
%TO.P,R5,2*%
%TO.N,GND*%
X174120000Y-83050000D03*
%TD*%
D13*
%TO.P,C1,1*%
%TO.N,TR*%
X163000000Y-55500000D03*
D10*
%TO.P,C1,2*%
%TO.N,GND*%
X165000000Y-55500000D03*
%TD*%
%TO.P,R1,1*%
%TO.N,+5V*%
X133000000Y-76500000D03*
%TO.P,R1,2*%
%TO.N,Net-(U1-DISCH)*%
X140620000Y-76500000D03*
%TD*%
D14*
%TO.P,R2,1,1_1*%
%TO.N,TR*%
X133000000Y-68000000D03*
%TO.P,R2,2,2_2*%
%TO.N,Net-(U1-DISCH)*%
X130460000Y-68000000D03*
%TO.P,R2,3,3_3*%
X127920000Y-68000000D03*
%TD*%
D11*
%TO.P,D6,1,K_1*%
%TO.N,GND*%
X113460000Y-126000000D03*
D12*
%TO.P,D6,2,A_2*%
%TO.N,Net-(D6-A)*%
X116000000Y-126000000D03*
%TD*%
D11*
%TO.P,D8,1,K_1*%
%TO.N,GND*%
X109230000Y-63000000D03*
D12*
%TO.P,D8,2,A_2*%
%TO.N,Net-(D8-A)*%
X111770000Y-63000000D03*
%TD*%
D10*
%TO.P,R6,1*%
%TO.N,Net-(U2-Q0)*%
X113190000Y-70000000D03*
%TO.P,R6,2*%
%TO.N,Net-(D8-A)*%
X120810000Y-70000000D03*
%TD*%
D15*
%TO.P,J1,A1,GND_A1*%
%TO.N,GND*%
X156250000Y-88455000D03*
%TO.P,J1,A4,VBUS_A4*%
%TO.N,Net-(SW1-A)*%
X157050000Y-88455000D03*
D16*
%TO.P,J1,A5,CC1_A5*%
%TO.N,Net-(J1-CC1)*%
X158250000Y-88455000D03*
%TO.P,J1,A6,D+_A6*%
%TO.N,unconnected-(J1-D+-PadA6)*%
X159250000Y-88455000D03*
%TO.P,J1,A7,D-_A7*%
%TO.N,unconnected-(J1-D--PadA7)*%
X159750000Y-88455000D03*
%TO.P,J1,A8*%
%TO.N,N/C*%
X160750000Y-88455000D03*
D15*
%TO.P,J1,A9,VBUS_A9*%
%TO.N,Net-(SW1-A)*%
X161950000Y-88455000D03*
%TO.P,J1,A12,GND_A12*%
%TO.N,GND*%
X162750000Y-88455000D03*
%TO.P,J1,B1,GND_B1*%
X162750000Y-88455000D03*
%TO.P,J1,B4,VBUS_B4*%
%TO.N,Net-(SW1-A)*%
X161950000Y-88455000D03*
D16*
%TO.P,J1,B5,CC2_B5*%
%TO.N,Net-(J1-CC2)*%
X161250000Y-88455000D03*
%TO.P,J1,B6,D+_B6*%
%TO.N,unconnected-(J1-D+-PadB6)*%
X160250000Y-88455000D03*
%TO.P,J1,B7,D-_B7*%
%TO.N,unconnected-(J1-D--PadB7)*%
X158750000Y-88455000D03*
%TO.P,J1,B8*%
%TO.N,N/C*%
X157750000Y-88455000D03*
D15*
%TO.P,J1,B9,VBUS_B9*%
%TO.N,Net-(SW1-A)*%
X157050000Y-88455000D03*
%TO.P,J1,B12,GND_B12*%
%TO.N,GND*%
X156250000Y-88455000D03*
D17*
%TO.P,J1,SH,SHIELD_SH*%
X155180000Y-89370000D03*
D18*
X155180000Y-93550000D03*
D17*
X163820000Y-89370000D03*
D18*
X163820000Y-93550000D03*
%TD*%
D10*
%TO.P,R9,1*%
%TO.N,Net-(U2-Q3)*%
X140880000Y-128500000D03*
%TO.P,R9,2*%
%TO.N,Net-(D5-A)*%
X148500000Y-128500000D03*
%TD*%
D19*
%TO.P,SW1,1,A_1*%
%TO.N,Net-(SW1-A)*%
X155525000Y-79750000D03*
X163475000Y-79750000D03*
%TO.P,SW1,2,B_2*%
%TO.N,+5V*%
X155525000Y-84250000D03*
X163475000Y-84250000D03*
%TD*%
D10*
%TO.P,R8,1*%
%TO.N,Net-(U2-Q2)*%
X117690000Y-118500000D03*
%TO.P,R8,2*%
%TO.N,Net-(D6-A)*%
X125310000Y-118500000D03*
%TD*%
D11*
%TO.P,D4,1,K_1*%
%TO.N,GND*%
X178500000Y-123500000D03*
D12*
%TO.P,D4,2,A_2*%
%TO.N,Net-(D4-A)*%
X181040000Y-123500000D03*
%TD*%
D10*
%TO.P,R10,1*%
%TO.N,Net-(U2-Q4)*%
X171190000Y-116500000D03*
%TO.P,R10,2*%
%TO.N,Net-(D4-A)*%
X178810000Y-116500000D03*
%TD*%
D13*
%TO.P,U1,1,GND_1*%
%TO.N,GND*%
X152695000Y-62190000D03*
D10*
%TO.P,U1,2,TRIG_2*%
%TO.N,TR*%
X152695000Y-64730000D03*
%TO.P,U1,3,OUT_3*%
%TO.N,OUT*%
X152695000Y-67270000D03*
%TO.P,U1,4,~{RST}_4*%
%TO.N,+5V*%
X152695000Y-69810000D03*
%TO.P,U1,5,CONT_5*%
%TO.N,Net-(U1-CONT)*%
X160315000Y-69810000D03*
%TO.P,U1,6,THRES_6*%
%TO.N,TR*%
X160315000Y-67270000D03*
%TO.P,U1,7,DISCH_7*%
%TO.N,Net-(U1-DISCH)*%
X160315000Y-64730000D03*
%TO.P,U1,8,VCC_8*%
%TO.N,+5V*%
X160315000Y-62190000D03*
%TD*%
D11*
%TO.P,D5,1,K_1*%
%TO.N,GND*%
X143960000Y-137000000D03*
D12*
%TO.P,D5,2,A_2*%
%TO.N,Net-(D5-A)*%
X146500000Y-137000000D03*
%TD*%
D20*
%TO.P,SW2,1,1_1*%
%TO.N,+5V*%
X141000000Y-65000000D03*
X147500000Y-65000000D03*
%TO.P,SW2,2,2_2*%
%TO.N,Net-(U2-Q8)*%
X141000000Y-69500000D03*
X147500000Y-69500000D03*
%TD*%
D13*
%TO.P,U2,1,Q5_1*%
%TO.N,Net-(U2-Q5)*%
X141500000Y-82340000D03*
D10*
%TO.P,U2,2,Q1_2*%
%TO.N,Net-(U2-Q1)*%
X141500000Y-84880000D03*
%TO.P,U2,3,Q0_3*%
%TO.N,Net-(U2-Q0)*%
X141500000Y-87420000D03*
%TO.P,U2,4,Q2_4*%
%TO.N,Net-(U2-Q2)*%
X141500000Y-89960000D03*
%TO.P,U2,5,Q6_5*%
%TO.N,Net-(U2-Q6)*%
X141500000Y-92500000D03*
%TO.P,U2,6,Q7_6*%
%TO.N,Net-(U2-Q7)*%
X141500000Y-95040000D03*
%TO.P,U2,7,Q3_7*%
%TO.N,Net-(U2-Q3)*%
X141500000Y-97580000D03*
%TO.P,U2,8,VSS_8*%
%TO.N,GND*%
X141500000Y-100120000D03*
%TO.P,U2,9,Q8_9*%
%TO.N,Net-(U2-Q8)*%
X149120000Y-100120000D03*
%TO.P,U2,10,Q4_10*%
%TO.N,Net-(U2-Q4)*%
X149120000Y-97580000D03*
%TO.P,U2,11,Q9_11*%
%TO.N,unconnected-(U2-Q9-Pad11)*%
X149120000Y-95040000D03*
%TO.P,U2,12,Cout_12*%
%TO.N,unconnected-(U2-Cout-Pad12)*%
X149120000Y-92500000D03*
%TO.P,U2,13,CKEN_13*%
%TO.N,GND*%
X149120000Y-89960000D03*
%TO.P,U2,14,CLK_14*%
%TO.N,OUT*%
X149120000Y-87420000D03*
%TO.P,U2,15,Reset_15*%
%TO.N,Net-(U2-Q8)*%
X149120000Y-84880000D03*
%TO.P,U2,16,VDD_16*%
%TO.N,+5V*%
X149120000Y-82340000D03*
%TD*%
D11*
%TO.P,D3,1,K_1*%
%TO.N,GND*%
X190500000Y-92500000D03*
D12*
%TO.P,D3,2,A_2*%
%TO.N,Net-(D3-A)*%
X193040000Y-92500000D03*
%TD*%
D11*
%TO.P,D7,1,K_1*%
%TO.N,GND*%
X97460000Y-93000000D03*
D12*
%TO.P,D7,2,A_2*%
%TO.N,Net-(D7-A)*%
X100000000Y-93000000D03*
%TD*%
D10*
%TO.P,R4,1*%
%TO.N,Net-(J1-CC1)*%
X166500000Y-79000000D03*
%TO.P,R4,2*%
%TO.N,GND*%
X174120000Y-79000000D03*
%TD*%
D21*
%TO.N,GND*%
X156419222Y-87408113D03*
X163000000Y-91200000D03*
D22*
X163600000Y-87600000D03*
X155300000Y-87700000D03*
D21*
X136857818Y-100261422D03*
X147000000Y-97000000D03*
X106500000Y-70500000D03*
X150350000Y-90500000D03*
D22*
%TO.N,+5V*%
X149400000Y-66900000D03*
X152900000Y-83600000D03*
X161200000Y-83800000D03*
X152700000Y-71900000D03*
X162800000Y-83800000D03*
%TO.N,TR*%
X158400000Y-65500000D03*
%TO.N,Net-(U1-DISCH)*%
X147700000Y-71100000D03*
X150000000Y-71100000D03*
%TO.N,Net-(SW1-A)*%
X157600000Y-79800000D03*
X156000000Y-79800000D03*
D21*
%TO.N,Net-(J1-CC1)*%
X165500000Y-78500000D03*
X158000000Y-86500000D03*
D22*
%TO.N,Net-(U2-Q1)*%
X133199999Y-88200000D03*
X134800000Y-86600000D03*
%TO.N,Net-(U2-Q5)*%
X146400000Y-83600000D03*
X151800000Y-83600000D03*
%TO.N,Net-(U2-Q7)*%
X130900000Y-86600000D03*
X139400000Y-95000000D03*
X133800000Y-89900000D03*
%TO.N,Net-(U2-Q8)*%
X150400000Y-96800000D03*
X147000000Y-84900000D03*
X151800000Y-87600000D03*
%TD*%
%TO.N,Net-(D4-A)*%
D23*
X178800000Y-121300000D02*
X178800000Y-116500000D01*
X181000000Y-123500000D02*
X178800000Y-121300000D01*
%TO.N,Net-(D3-A)*%
X186800000Y-92500000D02*
X188000000Y-92500000D01*
X189400000Y-91100000D02*
X191600000Y-91100000D01*
X191600000Y-91100000D02*
X193000000Y-92500000D01*
X188000000Y-92500000D02*
X189400000Y-91100000D01*
%TO.N,Net-(D7-A)*%
X112800000Y-92500000D02*
X112300000Y-93000000D01*
X105700000Y-93800000D02*
X100800000Y-93800000D01*
X106500000Y-93000000D02*
X105700000Y-93800000D01*
X112300000Y-93000000D02*
X106500000Y-93000000D01*
X100800000Y-93800000D02*
X100000000Y-93000000D01*
%TO.N,Net-(D8-A)*%
X118800000Y-70000000D02*
X120800000Y-70000000D01*
X111800000Y-63000000D02*
X118800000Y-70000000D01*
%TO.N,Net-(D6-A)*%
X123500000Y-118500000D02*
X125300000Y-118500000D01*
X116000000Y-126000000D02*
X123500000Y-118500000D01*
%TO.N,Net-(D2-A)*%
X176800000Y-58500000D02*
X174000000Y-61300000D01*
X174000000Y-61300000D02*
X174000000Y-64500000D01*
%TO.N,Net-(D1-A)*%
X146300000Y-46500000D02*
X147800000Y-48000000D01*
X147800000Y-48000000D02*
X147800000Y-55500000D01*
%TO.N,Net-(D5-A)*%
X148500000Y-128500000D02*
X146500000Y-130500000D01*
X146500000Y-130500000D02*
X146500000Y-137000000D01*
%TO.N,GND*%
D24*
X178605635Y-93600000D02*
X179645635Y-93600000D01*
D23*
X162800000Y-88500000D02*
X162750000Y-88455000D01*
D24*
X165400000Y-85800000D02*
X165400000Y-82594365D01*
X136999240Y-100120000D02*
X136857818Y-100261422D01*
D23*
X156200000Y-88500000D02*
X156250000Y-88455000D01*
D24*
X179645635Y-93600000D02*
X180290000Y-92955635D01*
X172900000Y-59830000D02*
X173115000Y-59615000D01*
X165000000Y-55500000D02*
X163900000Y-54400000D01*
D23*
X155900000Y-88300000D02*
X156000000Y-88400000D01*
D24*
X158500000Y-113500000D02*
X157400000Y-114600000D01*
X145363604Y-97000000D02*
X147000000Y-97000000D01*
X186354365Y-93600000D02*
X189400000Y-93600000D01*
X140400000Y-99020000D02*
X140400000Y-97124365D01*
X97460000Y-93000000D02*
X97460000Y-79540000D01*
D23*
X155300000Y-87700000D02*
X155400000Y-87800000D01*
D24*
X150424365Y-114600000D02*
X147000000Y-111175635D01*
X144843604Y-96480000D02*
X145363604Y-97000000D01*
X174120000Y-79000000D02*
X172900000Y-77780000D01*
X140400000Y-97124365D02*
X141044365Y-96480000D01*
X158500000Y-113500000D02*
X168500000Y-123500000D01*
D23*
X163000000Y-88200000D02*
X162900000Y-88300000D01*
X163600000Y-87600000D02*
X163500000Y-87700000D01*
X163600000Y-87600000D02*
X163500000Y-87700000D01*
D24*
X143960000Y-137000000D02*
X143960000Y-128040000D01*
D23*
X155700000Y-88100000D02*
X155800000Y-88200000D01*
D24*
X155180000Y-89370000D02*
X155180000Y-93550000D01*
X169000000Y-55500000D02*
X165000000Y-55500000D01*
D23*
X163300000Y-87900000D02*
X163200000Y-88000000D01*
X163200000Y-88000000D02*
X163100000Y-88100000D01*
X156000000Y-88400000D02*
X156100000Y-88500000D01*
D24*
X174120000Y-79000000D02*
X174120000Y-81365635D01*
D23*
X156250000Y-88455000D02*
X156250000Y-87577335D01*
X155300000Y-87700000D02*
X155300000Y-89250000D01*
D24*
X165400000Y-82594365D02*
X166044365Y-81950000D01*
X149810000Y-89960000D02*
X150350000Y-90500000D01*
X141500000Y-100120000D02*
X136999240Y-100120000D01*
X126000000Y-91500000D02*
X123250000Y-94250000D01*
X123250000Y-94250000D02*
X98710000Y-94250000D01*
D23*
X163100000Y-88100000D02*
X163000000Y-88200000D01*
D24*
X163900000Y-54400000D02*
X160485000Y-54400000D01*
X180290000Y-89220000D02*
X174120000Y-83050000D01*
D23*
X155300000Y-87700000D02*
X155400000Y-87800000D01*
D24*
X157400000Y-114600000D02*
X150424365Y-114600000D01*
X180290000Y-92955635D02*
X180290000Y-89220000D01*
X174120000Y-83050000D02*
X174120000Y-79000000D01*
X163820000Y-93550000D02*
X163820000Y-92020000D01*
X113460000Y-126000000D02*
X124460000Y-137000000D01*
D23*
X163400000Y-87800000D02*
X163300000Y-87900000D01*
D24*
X147000000Y-111175635D02*
X147000000Y-97000000D01*
X143960000Y-128040000D02*
X158500000Y-113500000D01*
D23*
X155600000Y-88000000D02*
X155700000Y-88100000D01*
D24*
X97460000Y-79540000D02*
X106500000Y-70500000D01*
X163820000Y-87820000D02*
X163600000Y-87600000D01*
X149120000Y-89960000D02*
X149810000Y-89960000D01*
X166955635Y-81950000D02*
X178605635Y-93600000D01*
D23*
X155800000Y-88200000D02*
X155900000Y-88300000D01*
D24*
X173115000Y-59615000D02*
X174230000Y-58500000D01*
D23*
X155400000Y-87800000D02*
X155500000Y-87900000D01*
X155300000Y-89250000D02*
X155180000Y-89370000D01*
X155500000Y-87900000D02*
X155600000Y-88000000D01*
D24*
X163820000Y-92020000D02*
X163000000Y-91200000D01*
X160485000Y-54400000D02*
X152695000Y-62190000D01*
X163600000Y-87600000D02*
X165400000Y-85800000D01*
X172900000Y-77780000D02*
X172900000Y-59830000D01*
X141500000Y-100120000D02*
X140400000Y-99020000D01*
X173115000Y-59615000D02*
X169000000Y-55500000D01*
D23*
X162900000Y-88300000D02*
X162800000Y-88400000D01*
D24*
X166044365Y-81950000D02*
X166955635Y-81950000D01*
X98710000Y-94250000D02*
X97460000Y-93000000D01*
X189400000Y-93600000D02*
X190500000Y-92500000D01*
X143730000Y-53225000D02*
X143730000Y-46500000D01*
X124460000Y-137000000D02*
X143960000Y-137000000D01*
X174120000Y-81365635D02*
X186354365Y-93600000D01*
D23*
X156250000Y-87577335D02*
X156419222Y-87408113D01*
D24*
X163820000Y-89370000D02*
X163820000Y-87820000D01*
D23*
X162800000Y-88400000D02*
X162800000Y-88500000D01*
X163500000Y-87700000D02*
X163400000Y-87800000D01*
X156100000Y-88500000D02*
X156200000Y-88500000D01*
D24*
X168500000Y-123500000D02*
X178500000Y-123500000D01*
X152695000Y-62190000D02*
X143730000Y-53225000D01*
X141044365Y-96480000D02*
X144843604Y-96480000D01*
%TO.N,OUT*%
D23*
X152700000Y-67300000D02*
X149100000Y-70900000D01*
X149100000Y-80500000D02*
X147900000Y-81700000D01*
X147900000Y-82000000D02*
X147800000Y-82100000D01*
X147900000Y-81700000D02*
X147900000Y-82000000D01*
X149100000Y-70900000D02*
X149100000Y-80500000D01*
X147800000Y-82100000D02*
X147800000Y-86100000D01*
X147800000Y-86100000D02*
X149100000Y-87400000D01*
%TO.N,+5V*%
X159800000Y-66000000D02*
X160700000Y-66000000D01*
X132500000Y-66800000D02*
X131800000Y-67500000D01*
X161600000Y-64200000D02*
X160300000Y-62900000D01*
X147500000Y-65000000D02*
X149400000Y-66900000D01*
X141000000Y-65000000D02*
X147500000Y-65000000D01*
X149700000Y-81700000D02*
X149100000Y-82300000D01*
X162800000Y-83800000D02*
X163200000Y-84200000D01*
X153900000Y-71900000D02*
X159800000Y-66000000D01*
X139200000Y-66800000D02*
X132500000Y-66800000D01*
X161300000Y-65500000D02*
X161600000Y-65200000D01*
X161300000Y-65599999D02*
X161300000Y-65500000D01*
X141000000Y-65000000D02*
X139200000Y-66800000D01*
X152700000Y-71900000D02*
X153900000Y-71900000D01*
X160800000Y-66099999D02*
X161300000Y-65599999D01*
X155500000Y-84200000D02*
X155525000Y-84250000D01*
X160300000Y-62900000D02*
X160300000Y-62200000D01*
X152700000Y-71900000D02*
X149700000Y-74900000D01*
X131800000Y-67500000D02*
X131800000Y-75300000D01*
X155500000Y-84200000D02*
X160800000Y-84200000D01*
X163500000Y-84200000D02*
X163475000Y-84250000D01*
X152900000Y-83600000D02*
X153500000Y-84200000D01*
X153500000Y-84200000D02*
X155500000Y-84200000D01*
X161600000Y-65200000D02*
X161600000Y-64200000D01*
X160700000Y-66000000D02*
X160800000Y-66099999D01*
X131800000Y-75300000D02*
X133000000Y-76500000D01*
X160800000Y-84200000D02*
X161200000Y-83800000D01*
X149700000Y-74900000D02*
X149700000Y-81700000D01*
X163200000Y-84200000D02*
X163500000Y-84200000D01*
%TO.N,TR*%
X149400000Y-68000000D02*
X133000000Y-68000000D01*
X159000000Y-64900000D02*
X159000000Y-59500000D01*
X152700000Y-64700000D02*
X149400000Y-68000000D01*
X155300000Y-67300000D02*
X156600000Y-67300000D01*
X152700000Y-64700000D02*
X155300000Y-67300000D01*
X156600000Y-67300000D02*
X158400000Y-65500000D01*
X159000000Y-59500000D02*
X163000000Y-55500000D01*
X158400000Y-65500000D02*
X159000000Y-64900000D01*
%TO.N,Net-(U1-DISCH)*%
X147600000Y-71000000D02*
X147700000Y-71100000D01*
X139300000Y-77800000D02*
X132500000Y-77800000D01*
X153900000Y-71100000D02*
X160300000Y-64700000D01*
X140600000Y-76500000D02*
X139300000Y-77800000D01*
X146500000Y-70600000D02*
X146800000Y-70900000D01*
X147100000Y-70900000D02*
X147200000Y-71000000D01*
X146800000Y-70900000D02*
X147100000Y-70900000D01*
X150000000Y-71100000D02*
X151100000Y-70000000D01*
X132500000Y-77800000D02*
X131199999Y-76500000D01*
X131199999Y-76500000D02*
X131199999Y-68700000D01*
X152200000Y-71100000D02*
X153900000Y-71100000D01*
X151100000Y-70000000D02*
X152200000Y-71100000D01*
X147200000Y-71000000D02*
X147600000Y-71000000D01*
X140600000Y-76500000D02*
X146500000Y-70600000D01*
X131199999Y-68700000D02*
X130500000Y-68000000D01*
%TO.N,Net-(U1-CONT)*%
X150100000Y-88300000D02*
X149600000Y-88800000D01*
X149600000Y-88800000D02*
X149500000Y-88700000D01*
X133800000Y-88700000D02*
X131000000Y-91500000D01*
X150400000Y-79700000D02*
X150400000Y-87900000D01*
X150400000Y-87900000D02*
X150100000Y-88200000D01*
X149500000Y-88700000D02*
X133800000Y-88700000D01*
X160300000Y-69800000D02*
X150400000Y-79700000D01*
X150100000Y-88200000D02*
X150100000Y-88300000D01*
%TO.N,Net-(J1-CC2)*%
D24*
X166500000Y-88500000D02*
X164200000Y-90800000D01*
X161300000Y-89800000D02*
X161300000Y-88600000D01*
X163300000Y-90600000D02*
X162100000Y-90600000D01*
X163500000Y-90800000D02*
X163300000Y-90600000D01*
X161200000Y-88500000D02*
X161250000Y-88455000D01*
X162100000Y-90600000D02*
X161300000Y-89800000D01*
X166500000Y-83000000D02*
X166500000Y-88500000D01*
X164200000Y-90800000D02*
X163500000Y-90800000D01*
X161300000Y-88600000D02*
X161200000Y-88500000D01*
%TO.N,Net-(SW1-A)*%
D23*
X161600000Y-87200000D02*
X157500000Y-87200000D01*
X163500000Y-79800000D02*
X163475000Y-79750000D01*
X155500000Y-79800000D02*
X155525000Y-79750000D01*
X161950000Y-88455000D02*
X162000000Y-88500000D01*
X156000000Y-79800000D02*
X155500000Y-79800000D01*
X157000000Y-88500000D02*
X157050000Y-88455000D01*
X162000000Y-88500000D02*
X162000000Y-81300000D01*
X162000000Y-81300000D02*
X163500000Y-79800000D01*
X160500000Y-79800000D02*
X157600000Y-79800000D01*
X162000000Y-81300000D02*
X160500000Y-79800000D01*
X157500000Y-87200000D02*
X157000000Y-87700000D01*
X157000000Y-87700000D02*
X157000000Y-88500000D01*
X162000000Y-87600000D02*
X161600000Y-87200000D01*
%TO.N,Net-(J1-CC1)*%
D24*
X158250000Y-91911371D02*
X158250000Y-88455000D01*
X154380000Y-94181371D02*
X154848629Y-94650000D01*
X158000000Y-86500000D02*
X155500000Y-86500000D01*
X155500000Y-86500000D02*
X154380000Y-87620000D01*
X154380000Y-87620000D02*
X154380000Y-94181371D01*
X166000000Y-79000000D02*
X165500000Y-78500000D01*
X154848629Y-94650000D02*
X155511371Y-94650000D01*
X155511371Y-94650000D02*
X158250000Y-91911371D01*
X166500000Y-79000000D02*
X166000000Y-79000000D01*
%TO.N,Net-(U2-Q0)*%
D23*
X113200000Y-70000000D02*
X130600000Y-87400000D01*
X130600000Y-87400000D02*
X141500000Y-87400000D01*
%TO.N,Net-(U2-Q1)*%
X127300000Y-84900000D02*
X130400000Y-88000000D01*
X134800000Y-86600000D02*
X136500000Y-84900000D01*
X136500000Y-84900000D02*
X141500000Y-84900000D01*
X133000000Y-88000000D02*
X133199999Y-88200000D01*
X105200000Y-92500000D02*
X112800000Y-84900000D01*
X112800000Y-84900000D02*
X127300000Y-84900000D01*
X130400000Y-88000000D02*
X133000000Y-88000000D01*
%TO.N,Net-(U2-Q2)*%
X140400000Y-95800000D02*
X140400000Y-95700000D01*
X140400000Y-95700000D02*
X140200000Y-95500000D01*
X140200000Y-91300000D02*
X141500000Y-90000000D01*
X140200000Y-95500000D02*
X140200000Y-91300000D01*
X117700000Y-118500000D02*
X140400000Y-95800000D01*
%TO.N,Net-(U2-Q3)*%
X142800000Y-100600000D02*
X142800000Y-98900000D01*
X141500000Y-127900000D02*
X141500000Y-101900000D01*
X142800000Y-98900000D02*
X141500000Y-97600000D01*
X140900000Y-128500000D02*
X141500000Y-127900000D01*
X141500000Y-101900000D02*
X142800000Y-100600000D01*
%TO.N,Net-(U2-Q4)*%
X152300000Y-97600000D02*
X149100000Y-97600000D01*
X171200000Y-116500000D02*
X152300000Y-97600000D01*
%TO.N,Net-(U2-Q5)*%
X164700000Y-78900000D02*
X164400000Y-78600000D01*
X155100000Y-82300000D02*
X153100000Y-82300000D01*
X153100000Y-82300000D02*
X151800000Y-83600000D01*
X145100000Y-82300000D02*
X141500000Y-82300000D01*
X146400000Y-83600000D02*
X145100000Y-82300000D01*
X169000000Y-82300000D02*
X168000000Y-82300000D01*
X164700000Y-79000000D02*
X164700000Y-78900000D01*
X156800000Y-78800000D02*
X156800000Y-80600000D01*
X164400000Y-78600000D02*
X157000000Y-78600000D01*
X168000000Y-82300000D02*
X164700000Y-79000000D01*
X157000000Y-78600000D02*
X156800000Y-78800000D01*
X156800000Y-80600000D02*
X155100000Y-82300000D01*
X179200000Y-92500000D02*
X169000000Y-82300000D01*
%TO.N,Net-(U2-Q6)*%
X155400000Y-78600000D02*
X154600000Y-78600000D01*
X151000000Y-95000000D02*
X149700000Y-96300000D01*
X145300000Y-96300000D02*
X141500000Y-92500000D01*
X151000000Y-82200000D02*
X151000000Y-95000000D01*
X154600000Y-78600000D02*
X151000000Y-82200000D01*
X166400000Y-64500000D02*
X161500000Y-69400000D01*
X161500000Y-69400000D02*
X161600000Y-69500000D01*
X161600000Y-69500000D02*
X161600000Y-72400000D01*
X149700000Y-96300000D02*
X145300000Y-96300000D01*
X161600000Y-72400000D02*
X155400000Y-78600000D01*
%TO.N,Net-(U2-Q7)*%
X140700000Y-56100000D02*
X129199999Y-67600000D01*
X140700000Y-56000000D02*
X140700000Y-56100000D01*
X130600000Y-85200000D02*
X130800000Y-85400000D01*
X129199999Y-67600000D02*
X129199999Y-82700000D01*
X130600000Y-84100000D02*
X130600000Y-85200000D01*
X138900000Y-95000000D02*
X139400000Y-95000000D01*
X129199999Y-82700000D02*
X130600000Y-84100000D01*
X140200000Y-55500000D02*
X140700000Y-56000000D01*
X130800000Y-86500000D02*
X130900000Y-86600000D01*
X130800000Y-85400000D02*
X130800000Y-86500000D01*
X133800000Y-89900000D02*
X138900000Y-95000000D01*
%TO.N,Net-(U2-Q8)*%
X151400000Y-96800000D02*
X150400000Y-96800000D01*
X151600000Y-87800000D02*
X151600000Y-96600000D01*
X147300000Y-81500000D02*
X147300000Y-81800000D01*
X149100000Y-100100000D02*
X150900000Y-101900000D01*
X147500000Y-69500000D02*
X141000000Y-69500000D01*
X151800000Y-87600000D02*
X151600000Y-87800000D01*
X147500000Y-69500000D02*
X148600000Y-70600000D01*
X148500000Y-80300000D02*
X147300000Y-81500000D01*
X148600000Y-70600000D02*
X148500000Y-70700000D01*
X147200000Y-84700000D02*
X147000000Y-84900000D01*
X150900000Y-101900000D02*
X150900000Y-113500000D01*
X148500000Y-70700000D02*
X148500000Y-80300000D01*
X147200000Y-81900000D02*
X147200000Y-84700000D01*
X147300000Y-81800000D02*
X147200000Y-81900000D01*
X151600000Y-96600000D02*
X151400000Y-96800000D01*
%TD*%
M02*
